<svg width="256" height="256" xmlns="http://www.w3.org/2000/svg" version="1.1">

 <g>
  <title>Layer 1</title>
  <g id="svg_116">
   <path id="svg_1" fill="#D42D1F" d="m118.09766,26.86719c0.87128,-0.00096 1.74256,-0.00191 2.64024,-0.0029c1.83648,-0.00068 3.67295,0.00115 5.50942,0.00534c2.80889,0.00536 5.61762,0.00004 8.42651,-0.00635c1.78711,0.00066 3.57422,0.00195 5.36133,0.00391c0.83862,-0.00202 1.67724,-0.00405 2.54128,-0.00613c1.17658,0.00472 1.17658,0.00472 2.37693,0.00955c0.68664,0.00079 1.37327,0.00159 2.08071,0.00241c2.0891,0.13494 3.95433,0.56059 5.96592,1.12698c0,0.66 0,1.32 0,2c1.0725,-0.02062 2.145,-0.04125 3.25,-0.0625c2.89791,0.0483 5.03613,0.19406 7.75,1.0625c0,0.66 0,1.32 0,2c2.64,0.33 5.28,0.66 8,1c0,0.66 0,1.32 0,2c0.94875,0.30938 1.8975,0.61875 2.875,0.9375c3.125,1.0625 3.125,1.0625 5.125,2.0625c0,0.66 0,1.32 0,2c1.98,0.33 3.96,0.66 6,1c0,0.66 0,1.32 0,2c0.99,0.33 1.98,0.66 3,1c0,0.66 0,1.32 0,2c1.65,0.33 3.3,0.66 5,1c0,0.66 0,1.32 0,2c0.66,0 1.32,0 2,0c1.33896,1.66216 2.67131,3.32964 4,5c1.36125,1.08281 1.36125,1.08281 2.75,2.1875c0.7425,0.59813 1.485,1.19625 2.25,1.8125c0,0.66 0,1.32 0,2c0.66,0 1.32,0 2,0c1.78306,2.63892 2.9906,4.97179 4,8c0.66,0 1.32,0 2,0c0.33,1.98 0.66,3.96 1,6c0.66,0 1.32,0 2,0c0,0.66 0,1.32 0,2c0.66,0 1.32,0 2,0c0.33,1.98 0.66,3.96 1,6c0.66,0 1.32,0 2,0c4.59226,11.52164 4.59226,11.52164 4,17c0.66,0 1.32,0 2,0c0.73596,3.29827 1.12601,6.3496 1.1294,9.72681c0.00315,0.90767 0.0063,1.81533 0.00955,2.7505c-0.00304,1.45176 -0.00304,1.45176 -0.00613,2.93285c0.00095,1.00446 0.00191,2.00891 0.0029,3.04381c0.00067,2.11894 -0.00116,4.23788 -0.00535,6.35682c-0.00535,3.24346 -0.00004,6.48678 0.00635,9.73023c-0.00066,2.06055 -0.00194,4.12109 -0.0039,6.18164c0.00202,0.96986 0.00404,1.93973 0.00613,2.93898c-0.00473,1.35677 -0.00473,1.35677 -0.00955,2.74095c-0.0008,0.79322 -0.00159,1.58644 -0.00241,2.4037c-0.12641,2.18368 -0.52441,4.09576 -1.12699,6.19371c-0.66,0 -1.32,0 -2,0c-0.33,3.3 -0.66,6.6 -1,10c-0.66,0 -1.32,0 -2,0c-0.15468,1.57781 -0.15468,1.57781 -0.3125,3.1875c-0.67722,3.75549 -1.58627,5.70269 -3.6875,8.8125c-0.68096,1.32609 -1.3533,2.65687 -2,4c-0.66,0 -1.32,0 -2,0c-0.33,1.32 -0.66,2.64 -1,4c-0.66,0 -1.32,0 -2,0c-0.33,1.65 -0.66,3.3 -1,5c-0.66,0 -1.32,0 -2,0c-0.33,0.99 -0.66,1.98 -1,3c-0.66,0 -1.32,0 -2,0c-0.26812,0.80438 -0.53625,1.60875 -0.8125,2.4375c-0.39187,0.84563 -0.78375,1.69125 -1.1875,2.5625c-0.99,0.33 -1.98,0.66 -3,1c-0.33,0.99 -0.66,1.98 -1,3c-1.66666,0.66667 -3.33333,1.33334 -5,2c-0.33,0.99 -0.66,1.98 -1,3c-0.66,0 -1.32,0 -2,0c0,0.66 0,1.32 0,2c-1.65,0.33 -3.3,0.66 -5,1c-0.33,0.99 -0.66,1.98 -1,3c-0.99,0 -1.98,0 -3,0c0,0.66 0,1.32 0,2c-11.73786,6 -11.73786,6 -16,6c0,0.66 0,1.32 0,2c-3.3,0.33 -6.6,0.66 -10,1c0,0.66 0,1.32 0,2c-2.93629,0.84337 -5.54638,1.12634 -8.59741,1.1294c-0.90451,0.00315 -1.80903,0.0063 -2.74095,0.00955c-0.96986,-0.00203 -1.93973,-0.00405 -2.93898,-0.00613c-1.50525,0.00143 -1.50525,0.00143 -3.04091,0.00289c-2.12072,0.00068 -4.24145,-0.00116 -6.36217,-0.00534c-3.24134,-0.00534 -6.48254,-0.00005 -9.72387,0.00635c-2.06185,-0.00066 -4.1237,-0.00194 -6.18555,-0.0039c-0.96784,0.00202 -1.93568,0.00404 -2.93285,0.00613c-0.90766,-0.00315 -1.81533,-0.00631 -2.7505,-0.00955c-0.79402,-0.0008 -1.58803,-0.00159 -2.40611,-0.00241c-2.51606,-0.13768 -4.86404,-0.57883 -7.3207,-1.12699c0,-0.66 0,-1.32 0,-2c-0.55687,-0.03738 -1.11375,-0.07476 -1.6875,-0.11328c-5.59875,-0.48232 -10.12915,-1.71914 -15.3125,-3.88672c0,-0.66 0,-1.32 0,-2c-1.98,-0.33 -3.96,-0.66 -6,-1c0,-0.66 0,-1.32 0,-2c-0.66,0 -1.32,0 -2,0c0,-0.66 0,-1.32 0,-2c-1.98,-0.33 -3.96,-0.66 -6,-1c0,-0.66 0,-1.32 0,-2c-0.99,-0.33 -1.98,-0.66 -3,-1c0,-0.66 0,-1.32 0,-2c-1.65,-0.33 -3.3,-0.66 -5,-1c0,-0.66 0,-1.32 0,-2c-0.66,0 -1.32,0 -2,0c-1.33895,-1.66215 -2.6713,-3.32963 -4,-5c-0.9075,-0.72187 -1.815,-1.44375 -2.75,-2.1875c-0.7425,-0.59812 -1.485,-1.19625 -2.25,-1.8125c0,-0.66 0,-1.32 0,-2c-0.66,0 -1.32,0 -2,0c-0.33,-1.65 -0.66,-3.3 -1,-5c-0.99,-0.33 -1.98,-0.66 -3,-1c0,-0.66 0,-1.32 0,-2c-0.66,0 -1.32,0 -2,0c-0.33,-1.98 -0.66,-3.96 -1,-6c-0.66,0 -1.32,0 -2,0c-3,-5.75 -3,-5.75 -3,-8c-0.66,0 -1.32,0 -2,0c-0.33,-2.64 -0.66,-5.28 -1,-8c-0.66,0 -1.32,0 -2,0c-1.17571,-3.67411 -1.07366,-7.16929 -1,-11c-0.66,0 -1.32,0 -2,0c-0.77418,-2.74961 -1.12608,-5.19315 -1.12939,-8.04663c-0.00315,-0.78439 -0.00631,-1.56878 -0.00955,-2.37694c0.00202,-0.83862 0.00405,-1.67724 0.00613,-2.54127c-0.00096,-0.87032 -0.00191,-1.74065 -0.0029,-2.63735c-0.00068,-1.83825 0.00116,-3.6765 0.00534,-5.51475c0.00535,-2.80678 0.00005,-5.61339 -0.00635,-8.42017c0.00067,-1.78841 0.00195,-3.57682 0.00391,-5.36523c-0.00202,-0.8366 -0.00405,-1.67319 -0.00613,-2.53514c0.01596,-3.98725 0.14814,-7.67064 1.13894,-11.56252c0.66,0 1.32,0 2,0c0.03739,-0.70125 0.07477,-1.4025 0.11328,-2.125c0.42945,-6.19751 1.41318,-11.1751 3.88672,-16.875c0.66,0 1.32,0 2,0c0.495,-2.97 0.495,-2.97 1,-6c0.66,0 1.32,0 2,0c0,-0.99 0,-1.98 0,-3c0.66,0 1.32,0 2,0c0.12375,-0.80437 0.2475,-1.60875 0.375,-2.4375c0.20625,-0.84562 0.4125,-1.69125 0.625,-2.5625c0.99,-0.495 0.99,-0.495 2,-1c0.33,-0.99 0.66,-1.98 1,-3c0.66,0 1.32,0 2,0c0.26813,-0.63937 0.53625,-1.27875 0.8125,-1.9375c1.1875,-2.0625 1.1875,-2.0625 4.1875,-3.0625c0.33,-1.65 0.66,-3.3 1,-5c0.99,0 1.98,0 3,0c0,-0.99 0,-1.98 0,-3c1.17563,-0.12375 1.17563,-0.12375 2.375,-0.25c2.76967,-0.45849 2.76967,-0.45849 3.75,-2.75c0.28875,-0.66 0.5775,-1.32 0.875,-2c0.99,-0.33 1.98,-0.66 3,-1c0,-0.66 0,-1.32 0,-2c0.99,-0.33 1.98,-0.66 3,-1c0.33,-0.66 0.66,-1.32 1,-2c2.5625,-0.625 2.5625,-0.625 5,-1c0,-0.66 0,-1.32 0,-2c0.99,0 1.98,0 3,0c0,-0.66 0,-1.32 0,-2c1.98,-0.33 3.96,-0.66 6,-1c0,-0.66 0,-1.32 0,-2c6.55005,-2.69707 11.88487,-4.53699 19,-4c0,-0.66 0,-1.32 0,-2c4.70593,-1.19804 9.27735,-1.14447 14.09766,-1.13281z"/>
   <path id="svg_2" fill="#C0BEBF" d="m118.09766,26.86719c0.87128,-0.00096 1.74256,-0.00191 2.64024,-0.0029c1.83648,-0.00068 3.67295,0.00115 5.50942,0.00534c2.80889,0.00536 5.61762,0.00004 8.42651,-0.00635c1.78711,0.00066 3.57422,0.00195 5.36133,0.00391c0.83862,-0.00202 1.67724,-0.00405 2.54128,-0.00613c1.17658,0.00472 1.17658,0.00472 2.37693,0.00955c0.68664,0.00079 1.37327,0.00159 2.08071,0.00241c2.0891,0.13494 3.95433,0.56059 5.96592,1.12698c0,0.66 0,1.32 0,2c1.0725,-0.02062 2.145,-0.04125 3.25,-0.0625c2.89791,0.0483 5.03613,0.19406 7.75,1.0625c0,0.66 0,1.32 0,2c2.64,0.33 5.28,0.66 8,1c0,0.66 0,1.32 0,2c0.94875,0.30938 1.8975,0.61875 2.875,0.9375c3.125,1.0625 3.125,1.0625 5.125,2.0625c0,0.66 0,1.32 0,2c1.98,0.33 3.96,0.66 6,1c0,0.66 0,1.32 0,2c0.99,0.33 1.98,0.66 3,1c0,0.66 0,1.32 0,2c1.65,0.33 3.3,0.66 5,1c0,0.66 0,1.32 0,2c0.66,0 1.32,0 2,0c1.33896,1.66216 2.67131,3.32964 4,5c1.36125,1.08281 1.36125,1.08281 2.75,2.1875c0.7425,0.59813 1.485,1.19625 2.25,1.8125c0,0.66 0,1.32 0,2c0.66,0 1.32,0 2,0c1.78306,2.63892 2.9906,4.97179 4,8c0.66,0 1.32,0 2,0c0.33,1.98 0.66,3.96 1,6c0.66,0 1.32,0 2,0c0,0.66 0,1.32 0,2c0.66,0 1.32,0 2,0c0.33,1.98 0.66,3.96 1,6c0.66,0 1.32,0 2,0c4.59226,11.52164 4.59226,11.52164 4,17c0.66,0 1.32,0 2,0c0.73596,3.29827 1.12601,6.3496 1.1294,9.72681c0.00315,0.90767 0.0063,1.81533 0.00955,2.7505c-0.00304,1.45176 -0.00304,1.45176 -0.00613,2.93285c0.00095,1.00446 0.00191,2.00891 0.0029,3.04381c0.00067,2.11894 -0.00116,4.23788 -0.00535,6.35682c-0.00535,3.24346 -0.00004,6.48678 0.00635,9.73023c-0.00066,2.06055 -0.00194,4.12109 -0.0039,6.18164c0.00202,0.96986 0.00404,1.93973 0.00613,2.93898c-0.00473,1.35677 -0.00473,1.35677 -0.00955,2.74095c-0.0008,0.79322 -0.00159,1.58644 -0.00241,2.4037c-0.12641,2.18368 -0.52441,4.09576 -1.12699,6.19371c-0.66,0 -1.32,0 -2,0c-0.33,3.3 -0.66,6.6 -1,10c-0.66,0 -1.32,0 -2,0c-0.15468,1.57781 -0.15468,1.57781 -0.3125,3.1875c-0.67722,3.75549 -1.58627,5.70269 -3.6875,8.8125c-0.68096,1.32609 -1.3533,2.65687 -2,4c-0.66,0 -1.32,0 -2,0c-0.33,1.32 -0.66,2.64 -1,4c-0.66,0 -1.32,0 -2,0c-0.33,1.65 -0.66,3.3 -1,5c-0.66,0 -1.32,0 -2,0c-0.33,0.99 -0.66,1.98 -1,3c-0.66,0 -1.32,0 -2,0c-0.26812,0.80438 -0.53625,1.60875 -0.8125,2.4375c-0.39187,0.84563 -0.78375,1.69125 -1.1875,2.5625c-0.99,0.33 -1.98,0.66 -3,1c-0.33,0.99 -0.66,1.98 -1,3c-1.66666,0.66667 -3.33333,1.33334 -5,2c-0.33,0.99 -0.66,1.98 -1,3c-0.66,0 -1.32,0 -2,0c0,0.66 0,1.32 0,2c-1.65,0.33 -3.3,0.66 -5,1c-0.33,0.99 -0.66,1.98 -1,3c-0.99,0 -1.98,0 -3,0c0,0.66 0,1.32 0,2c-11.73786,6 -11.73786,6 -16,6c0,0.66 0,1.32 0,2c-3.3,0.33 -6.6,0.66 -10,1c0,0.66 0,1.32 0,2c-2.93629,0.84337 -5.54638,1.12634 -8.59741,1.1294c-0.90451,0.00315 -1.80903,0.0063 -2.74095,0.00955c-0.96986,-0.00203 -1.93973,-0.00405 -2.93898,-0.00613c-1.50525,0.00143 -1.50525,0.00143 -3.04091,0.00289c-2.12072,0.00068 -4.24145,-0.00116 -6.36217,-0.00534c-3.24134,-0.00534 -6.48254,-0.00005 -9.72387,0.00635c-2.06185,-0.00066 -4.1237,-0.00194 -6.18555,-0.0039c-0.96784,0.00202 -1.93568,0.00404 -2.93285,0.00613c-0.90766,-0.00315 -1.81533,-0.00631 -2.7505,-0.00955c-0.79402,-0.0008 -1.58803,-0.00159 -2.40611,-0.00241c-2.51606,-0.13768 -4.86404,-0.57883 -7.3207,-1.12699c0,-0.66 0,-1.32 0,-2c-0.55687,-0.03738 -1.11375,-0.07476 -1.6875,-0.11328c-5.59875,-0.48232 -10.12915,-1.71914 -15.3125,-3.88672c0,-0.66 0,-1.32 0,-2c-1.98,-0.33 -3.96,-0.66 -6,-1c0,-0.66 0,-1.32 0,-2c-0.66,0 -1.32,0 -2,0c0,-0.66 0,-1.32 0,-2c-1.98,-0.33 -3.96,-0.66 -6,-1c0,-0.66 0,-1.32 0,-2c-0.99,-0.33 -1.98,-0.66 -3,-1c0,-0.66 0,-1.32 0,-2c-1.65,-0.33 -3.3,-0.66 -5,-1c0,-0.66 0,-1.32 0,-2c-0.66,0 -1.32,0 -2,0c-1.33895,-1.66215 -2.6713,-3.32963 -4,-5c-0.9075,-0.72187 -1.815,-1.44375 -2.75,-2.1875c-0.7425,-0.59812 -1.485,-1.19625 -2.25,-1.8125c0,-0.66 0,-1.32 0,-2c-0.66,0 -1.32,0 -2,0c-0.33,-1.65 -0.66,-3.3 -1,-5c-0.99,-0.33 -1.98,-0.66 -3,-1c0,-0.66 0,-1.32 0,-2c-0.66,0 -1.32,0 -2,0c-0.33,-1.98 -0.66,-3.96 -1,-6c-0.66,0 -1.32,0 -2,0c-3,-5.75 -3,-5.75 -3,-8c-0.66,0 -1.32,0 -2,0c-0.33,-2.64 -0.66,-5.28 -1,-8c-0.66,0 -1.32,0 -2,0c-1.17571,-3.67411 -1.07366,-7.16929 -1,-11c-0.66,0 -1.32,0 -2,0c-0.77418,-2.74961 -1.12608,-5.19315 -1.12939,-8.04663c-0.00315,-0.78439 -0.00631,-1.56878 -0.00955,-2.37694c0.00202,-0.83862 0.00405,-1.67724 0.00613,-2.54127c-0.00096,-0.87032 -0.00191,-1.74065 -0.0029,-2.63735c-0.00068,-1.83825 0.00116,-3.6765 0.00534,-5.51475c0.00535,-2.80678 0.00005,-5.61339 -0.00635,-8.42017c0.00067,-1.78841 0.00195,-3.57682 0.00391,-5.36523c-0.00202,-0.8366 -0.00405,-1.67319 -0.00613,-2.53514c0.01596,-3.98725 0.14814,-7.67064 1.13894,-11.56252c0.66,0 1.32,0 2,0c0.03739,-0.70125 0.07477,-1.4025 0.11328,-2.125c0.42945,-6.19751 1.41318,-11.1751 3.88672,-16.875c0.66,0 1.32,0 2,0c0.495,-2.97 0.495,-2.97 1,-6c0.66,0 1.32,0 2,0c0,-0.99 0,-1.98 0,-3c0.66,0 1.32,0 2,0c0.12375,-0.80437 0.2475,-1.60875 0.375,-2.4375c0.20625,-0.84562 0.4125,-1.69125 0.625,-2.5625c0.99,-0.495 0.99,-0.495 2,-1c0.33,-0.99 0.66,-1.98 1,-3c0.66,0 1.32,0 2,0c0.26813,-0.63937 0.53625,-1.27875 0.8125,-1.9375c1.1875,-2.0625 1.1875,-2.0625 4.1875,-3.0625c0.33,-1.65 0.66,-3.3 1,-5c0.99,0 1.98,0 3,0c0,-0.99 0,-1.98 0,-3c1.17563,-0.12375 1.17563,-0.12375 2.375,-0.25c2.76967,-0.45849 2.76967,-0.45849 3.75,-2.75c0.28875,-0.66 0.5775,-1.32 0.875,-2c0.99,-0.33 1.98,-0.66 3,-1c0,-0.66 0,-1.32 0,-2c0.99,-0.33 1.98,-0.66 3,-1c0.33,-0.66 0.66,-1.32 1,-2c2.5625,-0.625 2.5625,-0.625 5,-1c0,-0.66 0,-1.32 0,-2c0.99,0 1.98,0 3,0c0,-0.66 0,-1.32 0,-2c1.98,-0.33 3.96,-0.66 6,-1c0,-0.66 0,-1.32 0,-2c6.55005,-2.69707 11.88487,-4.53699 19,-4c0,-0.66 0,-1.32 0,-2c4.70593,-1.19804 9.27735,-1.14447 14.09766,-1.13281zm-45.09766,33.13281c0.66,0.33 1.32,0.66 2,1c0,0.66 0,1.32 0,2c0.66,0 1.32,0 2,0c0,7.92 0,15.84 0,24c-0.66,0.33 -1.32,0.66 -2,1c0,0.99 0,1.98 0,3c-0.66,0 -1.32,0 -2,0c-2.96235,3.63324 -2.96235,3.63324 -4,8c-0.66,0 -1.32,0 -2,0c0,0.99 0,1.98 0,3c-0.66,0 -1.32,0 -2,0c-0.33,2.64 -0.66,5.28 -1,8c-0.66,0 -1.32,0 -2,0c-0.33,2.97 -0.66,5.94 -1,9c-0.66,0 -1.32,0 -2,0c-0.88099,6.04109 -1.15273,11.89924 -1.125,18c-0.00386,0.85078 -0.00773,1.70156 -0.01172,2.57813c0.00803,5.2298 0.38197,10.24641 1.13672,15.42187c0.66,0 1.32,0 2,0c0.02579,0.60586 0.05157,1.21172 0.07813,1.83594c0.32409,4.78777 0.98892,8.75189 2.92187,13.16406c2.17705,4.96935 2.7707,9.61141 3,15c0.66,0 1.32,0 2,0c0,2.97 0,5.94 0,9c1.32,-0.33 2.64,-0.66 4,-1c0,-0.66 0,-1.32 0,-2c0.86625,-0.40218 0.86625,-0.40218 1.75,-0.8125c2.29529,-1.10281 2.29529,-1.10281 4.125,-2.8125c2.80403,-1.81437 4.85315,-1.59808 8.125,-1.375c0,0.66 0,1.32 0,2c3.3,0 6.6,0 10,0c0,-0.66 0,-1.32 0,-2c2.97,0 5.94,0 9,0c0,0.66 0,1.32 0,2c1.20657,0.18563 1.20657,0.18563 2.4375,0.375c0.84563,0.20625 1.69125,0.4125 2.5625,0.625c0.33,0.66 0.66,1.32 1,2c0.66,0 1.32,0 2,0c0,4.62 0,9.24 0,14c-1.65,-0.33 -3.3,-0.66 -5,-1c0,-0.66 0,-1.32 0,-2c-7.05976,-1.14986 -7.05976,-1.14986 -14,0c-1.83548,1.33379 -1.83548,1.33379 -3,3c0,0.66 0,1.32 0,2c2.91649,0.81314 5.83319,1.62554 8.75,2.4375c0.825,0.2301 1.65,0.4602 2.5,0.69727c0.79922,0.22236 1.59844,0.44472 2.42188,0.67383c0.73315,0.20423 1.46631,0.40847 2.22168,0.61889c1.04269,0.2834 1.04269,0.2834 2.10644,0.57251c0.63857,0.18539 1.27714,0.37077 1.93506,0.56177c12.81093,2.7188 28.61983,1.17845 41.06494,-2.56177c0,-0.66 0,-1.32 0,-2c1.98,-0.33 3.96,-0.66 6,-1c-0.33,-0.99 -0.66,-1.98 -1,-3c-0.66,0 -1.32,0 -2,0c0,-0.66 0,-1.32 0,-2c-1.4364,-0.19573 -2.87419,-0.38128 -4.3125,-0.5625c-0.8005,-0.10441 -1.60101,-0.20883 -2.42578,-0.3164c-2.42989,-0.26865 -2.42989,-0.26865 -5.26172,0.8789c0,0.66 0,1.32 0,2c-1.32,0.33 -2.64,0.66 -4,1c0,0.66 0,1.32 0,2c-0.66,0 -1.32,0 -2,0c-0.68838,-11.8173 -0.68838,-11.8173 1.8125,-15.6875c2.1875,-2.3125 2.1875,-2.3125 5.1875,-3.3125c0,-0.66 0,-1.32 0,-2c3.63,0 7.26,0 11,0c0,0.66 0,1.32 0,2c0.78375,0.06188 1.5675,0.12375 2.375,0.1875c1.29938,0.40219 1.29938,0.40219 2.625,0.8125c1.1875,2.375 1.1875,2.375 2,5c0.66,0.99 1.32,1.98 2,3c0.39014,1.9897 0.73203,3.9902 1,6c4.56455,-0.5434 7.97282,-1.79464 12,-4c0,-0.66 0,-1.32 0,-2c1.14469,-0.43312 1.14469,-0.43312 2.3125,-0.875c2.8378,-1.08769 2.8378,-1.08769 5.6875,-3.125c0,-0.66 0,-1.32 0,-2c0.99,0 1.98,0 3,0c1.37869,-1.62935 2.71274,-3.29749 4,-5c0.66,-0.33 1.32,-0.66 2,-1c0,-0.66 0,-1.32 0,-2c0.66,0 1.32,0 2,0c1.02612,-1.65071 2.02309,-3.3197 3,-5c0.53625,-0.47437 1.0725,-0.94875 1.625,-1.4375c2.01558,-2.29042 2.04564,-4.59825 2.375,-7.5625c0.59555,-0.01289 1.1911,-0.02578 1.80469,-0.03906c2.56427,-0.84567 2.56427,-0.84567 3.82813,-4.17187c0.5164,-1.38107 1.01277,-2.76973 1.49218,-4.16407c0.38902,-1.08124 0.38902,-1.08124 0.78589,-2.18432c1.75474,-5.03458 3.01189,-10.0167 3.7649,-15.30396c0.32421,-2.13672 0.32421,-2.13672 1.32421,-5.13672c0.12344,-2.74134 0.18515,-5.44619 0.1875,-8.1875c0.01225,-0.73025 0.0245,-1.46051 0.03711,-2.21289c0.01383,-5.20188 -0.85647,-9.58486 -2.22461,-14.59961c-0.18703,-1.45362 -0.34212,-2.9125 -0.4375,-4.375c-0.48001,-5.09351 -1.95617,-9.78583 -3.5625,-14.625c-0.66,0 -1.32,0 -2,0c-0.33,-2.64 -0.66,-5.28 -1,-8c-0.66,0 -1.32,0 -2,0c-0.33,-1.98 -0.66,-3.96 -1,-6c-0.66,0 -1.32,0 -2,0c-0.33,-0.99 -0.66,-1.98 -1,-3c0.43996,7.43379 1.66344,14.47806 3.30079,21.73828c0.80489,3.75469 1.31743,7.44387 1.69921,11.26172c0.66,0 1.32,0 2,0c-0.07218,1.09957 -0.14437,2.19914 -0.21875,3.33203c-0.52288,8.23281 -0.9417,16.4137 -0.78125,24.66797c-0.66,0 -1.32,0 -2,0c-0.50471,1.7695 -1.0036,3.54065 -1.5,5.3125c-0.27843,0.98614 -0.55687,1.97227 -0.84375,2.98828c-0.77437,2.72209 -0.77437,2.72209 -0.65625,5.69922c-0.66,0 -1.32,0 -2,0c-0.25394,0.59168 -0.50789,1.18336 -0.76953,1.79297c-1.85456,4.25786 -3.82069,8.23091 -6.23047,12.20703c0,0.66 0,1.32 0,2c-0.66,0 -1.32,0 -2,0c-1.62514,1.45834 -1.62514,1.45834 -3,3c0.33,-2.64 0.66,-5.28 1,-8c0.66,0 1.32,0 2,0c0,-2.64 0,-5.28 0,-8c0.66,0 1.32,0 2,0c0.78179,-4.14574 1.12834,-8.06463 1.13282,-12.28125c0.00193,-1.75763 0.00193,-1.75763 0.0039,-3.55078c-0.00386,-1.21043 -0.00773,-2.42086 -0.01172,-3.66797c0.00387,-1.21043 0.00774,-2.42086 0.01172,-3.66797c-0.00129,-1.17175 -0.00258,-2.34351 -0.0039,-3.55078c-0.0017,-1.59231 -0.0017,-1.59231 -0.00342,-3.21679c-0.13072,-3.09579 -0.5557,-6.02222 -1.1294,-9.06446c-0.66,0 -1.32,0 -2,0c-0.12375,-0.51562 -0.2475,-1.03125 -0.375,-1.5625c-0.81141,-3.16452 -1.71959,-6.29875 -2.625,-9.4375c-0.66,0 -1.32,0 -2,0c-0.33,-1.98 -0.66,-3.96 -1,-6c-0.66,0 -1.32,0 -2,0c-0.33,-1.65 -0.66,-3.3 -1,-5c-0.66,0 -1.32,0 -2,0c-0.495,-1.98 -0.495,-1.98 -1,-4c-0.66,0 -1.32,0 -2,0c0,-0.66 0,-1.32 0,-2c-0.66,0 -1.32,0 -2,0c-0.05802,-3.43743 -0.0936,-6.87473 -0.125,-10.3125c-0.01675,-0.97646 -0.03351,-1.95293 -0.05078,-2.95898c-0.00644,-0.93779 -0.01289,-1.87559 -0.01953,-2.8418c-0.01047,-0.86407 -0.02095,-1.72815 -0.03174,-2.61841c0.22705,-2.26831 0.22705,-2.26831 2.22705,-5.26831c0,-0.99 0,-1.98 0,-3c0.66,-0.33 1.32,-0.66 2,-1c-2.43757,-0.02698 -4.87485,-0.04683 -7.3125,-0.0625c-0.69029,-0.00838 -1.38058,-0.01676 -2.09179,-0.02539c-3.14401,-0.01519 -5.58991,0.08596 -8.59571,1.08789c0,0.66 0,1.32 0,2c-0.99,0 -1.98,0 -3,0c-1.9982,2.23328 -3.65827,4.31654 -5,7c-1.62566,-0.4769 -3.25051,-0.95659 -4.875,-1.4375c-0.90492,-0.26683 -1.80984,-0.53367 -2.74218,-0.80859c-2.38282,-0.75391 -2.38282,-0.75391 -4.38282,-1.75391c-4.22303,-0.28415 -8.4501,-0.31405 -12.68139,-0.3501c-1.40122,-0.01637 -2.80235,-0.0434 -4.20313,-0.08203c-10.08366,-0.27606 -17.89858,1.05369 -27.11548,5.43213c-0.495,-2.475 -0.495,-2.475 -1,-5c-1.32,-0.33 -2.64,-0.66 -4,-1c0,-0.66 0,-1.32 0,-2c-4.67049,-2.73763 -7.98799,-3.33996 -13.375,-3.1875c-1.24523,0.02707 -2.49046,0.05414 -3.77343,0.08203c-1.41153,0.05221 -1.41153,0.05221 -2.85157,0.10547z"/>
   <path id="svg_3" fill="#FDF9F9" d="m86,86c5.61,0 11.22,0 17,0c0,0.66 0,1.32 0,2c0.99,0 1.98,0 3,0c0,0.66 0,1.32 0,2c2.475,0.495 2.475,0.495 5,1c0,0.66 0,1.32 0,2c0.76312,0.10313 1.52625,0.20625 2.3125,0.3125c3.03421,0.77619 3.99758,1.06812 5.6875,3.6875c0.54558,2.68025 0.77566,5.2631 1,8c0.66,0 1.32,0 2,0c0.495,5.445 0.495,5.445 1,11c2.31,0 4.62,0 7,0c-0.02063,-1.0725 -0.04125,-2.145 -0.0625,-3.25c0.0483,-2.8979 0.19406,-5.03612 1.0625,-7.75c0.66,0 1.32,0 2,0c0.33,-1.98 0.66,-3.96 1,-6c0.66,0 1.32,0 2,0c0.33,-1.65 0.66,-3.3 1,-5c0.66,0 1.32,0 2,0c0,-0.66 0,-1.32 0,-2c8.18489,-5.07463 15.43705,-5.53931 25,-5c3.4375,0.875 3.4375,0.875 6,2c0.86625,0.26812 1.7325,0.53625 2.625,0.8125c3.01143,1.50571 4.38585,3.51244 6.375,6.1875c0.99,0.495 0.99,0.495 2,1c3.63337,5.40597 3.38772,10.42555 3.25,16.6875c-0.00516,0.94939 -0.01031,1.89879 -0.01562,2.87695c-0.07892,6.96917 -0.07892,6.96917 -1.23438,10.43555c-0.66,0 -1.32,0 -2,0c-0.26812,0.80438 -0.53625,1.60875 -0.8125,2.4375c-0.39187,0.84562 -0.78375,1.69125 -1.1875,2.5625c-1.485,0.495 -1.485,0.495 -3,1c0,0.66 0,1.32 0,2c-0.99,0 -1.98,0 -3,0c-0.33,0.99 -0.66,1.98 -1,3c-0.99,0 -1.98,0 -3,0c0,0.66 0,1.32 0,2c-4.01233,0.94051 -7.81973,1.19635 -11.9375,1.25c-1.77697,0.03867 -1.77697,0.03867 -3.58984,0.07813c-3.79263,-0.35836 -6.20067,-1.42987 -9.47266,-3.32813c0,-0.66 0,-1.32 0,-2c-1.485,-0.495 -1.485,-0.495 -3,-1c-0.33,-1.65 -0.66,-3.3 -1,-5c-1.77706,2.66559 -2.87548,5.02806 -4,8c-0.66,0 -1.32,0 -2,0c-0.33,0.99 -0.66,1.98 -1,3c-12.82368,0.56854 -12.82368,0.56854 -19,-3c-0.33,-0.66 -0.66,-1.32 -1,-2c-1.32,0 -2.64,0 -4,0c0,0.66 0,1.32 0,2c-0.99,0 -1.98,0 -3,0c0,0.66 0,1.32 0,2c-7.53072,2.51024 -16.03094,1.51072 -23.39063,-1.14844c-1.60937,-0.85156 -1.60937,-0.85156 -2.60937,-2.85156c-0.59812,-0.0825 -1.19625,-0.165 -1.8125,-0.25c-3.43144,-1.17649 -4.44473,-3.70016 -6.1875,-6.75c0,-0.66 0,-1.32 0,-2c-0.66,0 -1.32,0 -2,0c-0.94352,-2.83057 -1.12866,-4.59464 -1.13281,-7.52734c-0.00129,-0.87463 -0.00258,-1.74926 -0.00391,-2.65039c0.00387,-0.91073 0.00774,-1.82145 0.01172,-2.75977c-0.00387,-0.90686 -0.00773,-1.81371 -0.01172,-2.74805c0.00129,-0.87591 0.00258,-1.75183 0.00391,-2.65429c0.00113,-0.79785 0.00225,-1.5957 0.00342,-2.41773c0.12713,-2.20323 0.52045,-4.12627 1.12939,-6.24243c0.66,0 1.32,0 2,0c0.33,-1.32 0.66,-2.64 1,-4c0.66,0 1.32,0 2,0c0,-0.66 0,-1.32 0,-2c0.9785,-1.02105 1.9798,-2.02061 3,-3c0.33,-0.66 0.66,-1.32 1,-2c2.32157,-0.40729 4.65688,-0.74439 7,-1c0,-0.66 0,-1.32 0,-2z"/>
   <path id="svg_4" fill="#B2BFDA" d="m141,49c0,0.33 0,0.66 0,1c-8.91,0 -17.82,0 -27,0c0,0.66 0,1.32 0,2c-2.97,0.66 -5.94,1.32 -9,2c2.31,0.33 4.62,0.66 7,1c-1,2 -1,2 -2.8125,2.6875c-2.3757,0.33939 -3.92086,0.04106 -6.1875,-0.6875c0,-0.66 0,-1.32 0,-2c-0.65227,0.51691 -1.30453,1.03383 -1.97656,1.56641c-0.87399,0.65871 -1.74797,1.31742 -2.64844,1.99609c-0.85852,0.66129 -1.71703,1.32258 -2.60156,2.00391c-3.50013,1.80922 -4.99814,1.31963 -8.77344,0.43359c-2.12412,-0.0646 -4.25003,-0.08611 -6.375,-0.0625c-1.05961,0.00902 -2.11922,0.01805 -3.21094,0.02734c-0.79664,0.01161 -1.59328,0.02321 -2.41406,0.03516c0,0.66 0,1.32 0,2c0.66,0 1.32,0 2,0c0.98044,2.94132 1.11621,4.82502 1.09766,7.88672c-0.00323,0.93779 -0.00645,1.87558 -0.00977,2.8418c-0.01257,1.46469 -0.01257,1.46469 -0.02539,2.95898c-0.00451,0.98807 -0.00902,1.97613 -0.01367,2.99414c-0.01179,2.43951 -0.02824,4.87891 -0.04883,7.31836c-0.99,0.33 -1.98,0.66 -3,1c0,0.99 0,1.98 0,3c-0.66,0 -1.32,0 -2,0c-0.28875,0.76313 -0.5775,1.52625 -0.875,2.3125c-1.125,2.6875 -1.125,2.6875 -3.125,5.6875c-0.66,0 -1.32,0 -2,0c0,0.99 0,1.98 0,3c-0.66,0 -1.32,0 -2,0c-0.33,2.64 -0.66,5.28 -1,8c-0.66,0 -1.32,0 -2,0c-0.33,2.97 -0.66,5.94 -1,9c-0.66,0 -1.32,0 -2,0c0,11.88 0,23.76 0,36c0.66,0 1.32,0 2,0c0.09797,0.60586 0.19594,1.21172 0.29687,1.83594c0.8127,4.55388 1.78312,8.53805 3.76563,12.72656c3.05577,7.07712 2.76137,14.84619 2.9375,22.4375c-3.80381,-2.07178 -6.46451,-4.30689 -9.3125,-7.5625c-0.69738,-0.78504 -1.39477,-1.57008 -2.11328,-2.37891c-1.57422,-2.05859 -1.57422,-2.05859 -1.57422,-4.05859c-0.66,0 -1.32,0 -2,0c-1.33819,-2.62262 -2.67072,-5.24787 -4,-7.875c-0.57234,-1.11955 -0.57234,-1.11955 -1.15625,-2.26172c-0.36094,-0.71543 -0.72187,-1.43086 -1.09375,-2.16797c-0.50273,-0.98976 -0.50273,-0.98976 -1.01563,-1.99951c-0.73437,-1.6958 -0.73437,-1.6958 -0.73437,-3.6958c-0.66,0 -1.32,0 -2,0c-2.08135,-5.29799 -3.71292,-10.45564 -5,-16c-0.33,0 -0.66,0 -1,0c-1.66676,-11.66731 -1.89984,-24.34293 0,-36c0.495,-0.495 0.495,-0.495 1,-1c0.13425,-1.47674 0.23165,-2.95688 0.3125,-4.4375c0.52962,-5.73621 2.31902,-10.35342 4.6875,-15.5625c0.41895,-0.95648 0.83789,-1.91297 1.26953,-2.89844c4.06739,-9.16698 4.06739,-9.16698 6.73047,-13.10156c0.66,0 1.32,0 2,0c0.10313,-0.5775 0.20625,-1.155 0.3125,-1.75c0.79646,-2.60661 1.87815,-4.22353 3.6875,-6.25c0.66,0 1.32,0 2,0c0.26812,-0.63937 0.53625,-1.27875 0.8125,-1.9375c1.1875,-2.0625 1.1875,-2.0625 4.1875,-3.0625c0.33,-0.99 0.66,-1.98 1,-3c2.58073,-2.32266 3.45176,-3 7,-3c0,-0.66 0,-1.32 0,-2c2,-1 4,-2 6,-3c1.05188,-0.55688 1.05188,-0.55688 2.125,-1.125c1.9388,-0.90478 3.7871,-1.42759 5.875,-1.875c0,0.66 0,1.32 0,2c0.63164,-0.20496 1.26328,-0.40992 1.91406,-0.62109c15.47797,-4.66124 39.2977,-6.83895 53.08594,3.62109z"/>
   <path id="svg_5" fill="#F37425" d="m73,60c2.20771,-0.08165 4.4163,-0.13948 6.625,-0.1875c1.22977,-0.0348 2.45953,-0.06961 3.72656,-0.10547c3.91252,0.31418 6.28914,1.3239 9.64844,3.29297c0,0.66 0,1.32 0,2c1.32,0.33 2.64,0.66 4,1c0.495,2.475 0.495,2.475 1,5c0.75644,-0.35441 1.51288,-0.70882 2.29224,-1.07397c8.3333,-3.59141 15.25788,-4.69543 24.38379,-4.52295c2.0215,0.03459 4.03867,0.02051 6.0603,0.00122c7.15448,0.05289 12.92532,0.63922 19.41919,3.74048c1.80804,0.99544 1.80804,0.99544 3.84448,0.85522c0.26812,-0.59812 0.53625,-1.19625 0.8125,-1.8125c1.19737,-2.20569 2.23229,-3.62333 4.1875,-5.1875c0.99,0 1.98,0 3,0c0,-0.66 0,-1.32 0,-2c3.61868,-1.20623 6.92506,-1.10817 10.6875,-1.0625c0.70189,0.00451 1.40379,0.00902 2.12695,0.01367c1.72856,0.01176 3.45706,0.0297 5.18555,0.04883c-0.66,0.33 -1.32,0.66 -2,1c-0.5907,1.94603 -0.5907,1.94603 -1,4c-0.33,0.66 -0.66,1.32 -1,2c-0.0991,2.92646 -0.13889,5.82395 -0.125,8.75c-0.00387,0.79922 -0.00773,1.59844 -0.01172,2.42188c0.00722,4.38851 0.25873,8.50785 1.13672,12.82812c-3.40757,-0.40891 -6.48459,-0.79623 -9.6875,-2.0625c-9.57046,-2.70862 -19.36294,-0.85293 -28.3125,3.0625c0,0.66 0,1.32 0,2c-0.66,0 -1.32,0 -2,0c-0.33,1.65 -0.66,3.3 -1,5c-0.66,0 -1.32,0 -2,0c-0.33,1.98 -0.66,3.96 -1,6c-0.66,0 -1.32,0 -2,0c-0.33,3.63 -0.66,7.26 -1,11c-2.31,0 -4.62,0 -7,0c-0.33,-3.63 -0.66,-7.26 -1,-11c-0.66,0 -1.32,0 -2,0c-0.495,-3.96 -0.495,-3.96 -1,-8c-0.99,-0.33 -1.98,-0.66 -3,-1c0,-0.66 0,-1.32 0,-2c-1.65,-0.33 -3.3,-0.66 -5,-1c0,-0.66 0,-1.32 0,-2c-1.65,-0.33 -3.3,-0.66 -5,-1c0,-0.66 0,-1.32 0,-2c-0.99,0 -1.98,0 -3,0c0,-0.66 0,-1.32 0,-2c-5.61,0 -11.22,0 -17,0c0,0.66 0,1.32 0,2c-2.31,0.33 -4.62,0.66 -7,1c-0.99,2.475 -0.99,2.475 -2,5c-0.66,0 -1.32,0 -2,0c0,0.66 0,1.32 0,2c-0.99,0.495 -0.99,0.495 -2,1c-0.33,0.99 -0.66,1.98 -1,3c-0.66,0 -1.32,0 -2,0c0,8.25 0,16.5 0,25c-0.66,0 -1.32,0 -2,0c-0.66,-5.61 -1.32,-11.22 -2,-17c-0.99,0.495 -0.99,0.495 -2,1c0.33,-2.31 0.66,-4.62 1,-7c0.66,0 1.32,0 2,0c0,-0.99 0,-1.98 0,-3c0.66,0 1.32,0 2,0c0.43312,-0.86625 0.43312,-0.86625 0.875,-1.75c1.5625,-3.125 1.5625,-3.125 3.125,-6.25c0.66,0 1.32,0 2,0c0,-0.99 0,-1.98 0,-3c0.66,-0.33 1.32,-0.66 2,-1c0,-7.92 0,-15.84 0,-24c-0.66,0 -1.32,0 -2,0c0,-0.66 0,-1.32 0,-2c-0.66,-0.33 -1.32,-0.66 -2,-1z"/>
   <path id="svg_6" fill="#FDFAF6" d="m86,86c5.61,0 11.22,0 17,0c0,0.66 0,1.32 0,2c0.99,0 1.98,0 3,0c0,0.66 0,1.32 0,2c2.475,0.495 2.475,0.495 5,1c0,0.66 0,1.32 0,2c0.76312,0.10313 1.52625,0.20625 2.3125,0.3125c3.03421,0.77619 3.99758,1.06812 5.6875,3.6875c0.54558,2.68025 0.77566,5.2631 1,8c0.66,0 1.32,0 2,0c0,4.29 0,8.58 0,13c-2.475,0.495 -2.475,0.495 -5,1c0,0.66 0,1.32 0,2c-1.375,1.625 -1.375,1.625 -3,3c-0.66,0 -1.32,0 -2,0c-0.33,3.96 -0.66,7.92 -1,12c-0.66,0 -1.32,0 -2,0c0,0.66 0,1.32 0,2c-0.99,0 -1.98,0 -3,0c0,0.66 0,1.32 0,2c-7.53072,2.51024 -16.03094,1.51072 -23.39063,-1.14844c-1.60937,-0.85156 -1.60937,-0.85156 -2.60937,-2.85156c-0.59812,-0.0825 -1.19625,-0.165 -1.8125,-0.25c-3.43144,-1.17649 -4.44473,-3.70016 -6.1875,-6.75c0,-0.66 0,-1.32 0,-2c-0.66,0 -1.32,0 -2,0c-0.94352,-2.83057 -1.12866,-4.59464 -1.13281,-7.52734c-0.00129,-0.87463 -0.00258,-1.74926 -0.00391,-2.65039c0.00387,-0.91073 0.00774,-1.82145 0.01172,-2.75977c-0.00387,-0.90686 -0.00773,-1.81371 -0.01172,-2.74805c0.00129,-0.87591 0.00258,-1.75183 0.00391,-2.65429c0.00113,-0.79785 0.00225,-1.5957 0.00342,-2.41773c0.12713,-2.20323 0.52045,-4.12627 1.12939,-6.24243c0.66,0 1.32,0 2,0c0.33,-1.32 0.66,-2.64 1,-4c0.66,0 1.32,0 2,0c0,-0.66 0,-1.32 0,-2c0.9785,-1.02105 1.9798,-2.02061 3,-3c0.33,-0.66 0.66,-1.32 1,-2c2.32157,-0.40729 4.65688,-0.74439 7,-1c0,-0.66 0,-1.32 0,-2z"/>
   <path id="svg_7" fill="#8C8789" d="m197,69c5.08773,2.32582 7.65914,6.05928 10,11c0,0.99 0,1.98 0,3c0.66,0 1.32,0 2,0c0.50834,1.24663 1.00631,2.49749 1.5,3.75c0.41766,1.04414 0.41766,1.04414 0.84375,2.10938c0.65625,2.14062 0.65625,2.14062 0.65625,6.14062c0.66,0 1.32,0 2,0c0.33,3.63 0.66,7.26 1,11c0.66,0 1.32,0 2,0c0.06059,0.84305 0.12117,1.68609 0.18359,2.55469c0.08379,1.0957 0.16758,2.1914 0.25391,3.32031c0.08121,1.09055 0.16242,2.18109 0.24609,3.30469c0.14643,2.7676 0.14643,2.7676 1.31641,4.82031c0.09602,1.65536 0.13075,3.31451 0.13281,4.97266c0.00129,0.98162 0.00258,1.96324 0.00391,2.97461c-0.00387,1.02802 -0.00774,2.05605 -0.01172,3.11523c0.00387,1.03189 0.00773,2.06379 0.01172,3.12695c-0.00193,1.4705 -0.00193,1.4705 -0.00391,2.97071c-0.00113,0.90371 -0.00225,1.80742 -0.00342,2.73852c-0.12939,2.10132 -0.12939,2.10132 -1.12939,3.10132c-0.50403,3.16163 -0.90128,6.33189 -1.30469,9.50781c-0.76322,3.83327 -2.04817,6.95242 -3.69531,10.49219c-0.49758,1.10859 -0.99516,2.21719 -1.50781,3.35938c-7.77752,16.30648 -19.07718,27.38729 -34.49219,36.64062c-0.92941,0.57234 -1.85883,1.14469 -2.81641,1.73438c-6.73006,4.11444 -6.73006,4.11444 -10.18359,5.26562c0,0.99 0,1.98 0,3c-1.32,-0.33 -2.64,-0.66 -4,-1c0,-0.66 0,-1.32 0,-2c-1.09313,0.47438 -2.18625,0.94875 -3.3125,1.4375c-4.45556,1.70078 -8.72912,2.07797 -13.46484,2.35156c-2.19419,-0.02991 -2.19419,-0.02991 -3.22266,1.21094c-2.21855,0.08784 -4.43988,0.10695 -6.66016,0.09766c-0.9967,-0.00213 -0.9967,-0.00213 -2.01353,-0.00429c-2.12965,-0.00561 -4.25919,-0.01817 -6.38881,-0.03087c-1.44075,-0.00501 -2.88151,-0.00958 -4.32227,-0.01367c-3.53844,-0.01105 -7.07683,-0.02832 -10.61523,-0.04883c0,-0.66 0,-1.32 0,-2c-0.55688,0.0232 -1.11375,0.04641 -1.6875,0.07031c-5.48859,0.1298 -10.04184,-0.53703 -15.3125,-2.07031c-0.33,0.66 -0.66,1.32 -1,2c-2.3125,-0.125 -2.3125,-0.125 -5,-1c-0.47437,-0.96938 -0.94875,-1.93875 -1.4375,-2.9375c-1.2993,-3.3509 -1.2993,-3.3509 -4.75,-4.4375c-0.92812,-0.20625 -1.85625,-0.4125 -2.8125,-0.625c0,-1.32 0,-2.64 0,-4c-2.64,-0.33 -5.28,-0.66 -8,-1c0,-0.66 0,-1.32 0,-2c-0.87592,-0.40605 -0.87592,-0.40605 -1.76953,-0.82031c-2.2193,-1.17378 -3.99608,-2.44547 -5.91797,-4.05469c-0.60199,-0.49242 -1.20398,-0.98484 -1.82422,-1.49219c-1.69315,-1.85758 -2.09013,-3.1802 -2.48828,-5.63281c-0.66,0 -1.32,0 -2,0c0,-0.99 0,-1.98 0,-3c-0.66,0 -1.32,0 -2,0c-0.33,-1.32 -0.66,-2.64 -1,-4c0.66,0 1.32,0 2,0c1.34897,1.55628 2.63065,3.17136 3.875,4.8125c2.47994,3.2673 4.71448,5.88578 8.125,8.1875c0,-1.98 0,-3.96 0,-6c0.66,0 1.32,0 2,0c0,2.97 0,5.94 0,9c3.72755,-1.24252 5.274,-3.20752 8,-6c1.9375,-1.875 1.9375,-1.875 4,-3c3.25,0.3125 3.25,0.3125 6,1c0,0.66 0,1.32 0,2c3.3,0 6.6,0 10,0c0,-0.66 0,-1.32 0,-2c2.97,0 5.94,0 9,0c0,0.66 0,1.32 0,2c1.65,0 3.3,0 5,0c0.33,0.99 0.66,1.98 1,3c0.66,0 1.32,0 2,0c0,4.62 0,9.24 0,14c-1.65,-0.33 -3.3,-0.66 -5,-1c0,-0.66 0,-1.32 0,-2c-4.62,0 -9.24,0 -14,0c-0.33,0.99 -0.66,1.98 -1,3c-0.66,0 -1.32,0 -2,0c0,0.66 0,1.32 0,2c0.91781,0.19336 1.83562,0.38672 2.78125,0.58594c1.22719,0.26039 2.45437,0.52078 3.71875,0.78906c1.20656,0.25523 2.41312,0.51047 3.65625,0.77344c2.53818,0.56232 5.0596,1.20736 7.55469,1.9375c5.41545,1.36501 10.8613,1.21092 16.41406,1.16406c1.10207,-0.00387 2.20414,-0.00773 3.3396,-0.01172c7.99634,-0.08466 15.6794,-0.66427 23.5354,-2.23828c0,-0.66 0,-1.32 0,-2c1.98,-0.33 3.96,-0.66 6,-1c-0.495,-0.45375 -0.99,-0.9075 -1.5,-1.375c-1.5,-1.625 -1.5,-1.625 -1.5,-3.625c-3.96,0 -7.92,0 -12,0c0,0.66 0,1.32 0,2c-1.32,0.33 -2.64,0.66 -4,1c0,0.66 0,1.32 0,2c-0.66,0 -1.32,0 -2,0c-1.85523,-3.71046 -1.45269,-7.95062 -1,-12c2.6988,-5.49398 2.6988,-5.49398 6.25,-6.875c0.5775,-0.04125 1.155,-0.0825 1.75,-0.125c0,-0.66 0,-1.32 0,-2c3.63,0 7.26,0 11,0c0,0.66 0,1.32 0,2c0.72187,0 1.44375,0 2.1875,0c3.81975,1.35813 4.89566,3.42256 6.875,6.85547c1.22941,2.81228 1.31562,5.11956 0.9375,8.14453c0.92232,-0.43312 0.92232,-0.43312 1.86328,-0.875c0.80824,-0.37125 1.61649,-0.7425 2.44922,-1.125c0.80051,-0.37125 1.60102,-0.7425 2.42578,-1.125c2.26172,-0.875 2.26172,-0.875 5.26172,-0.875c0,-0.66 0,-1.32 0,-2c5.41176,-4 5.41176,-4 8,-4c0,-0.66 0,-1.32 0,-2c0.99,0 1.98,0 3,0c0.33,-0.99 0.66,-1.98 1,-3c0.66,0 1.32,0 2,0c0.33,-0.99 0.66,-1.98 1,-3c0.66,0 1.32,0 2,0c0,-0.66 0,-1.32 0,-2c0.66,0 1.32,0 2,0c0.0825,-0.5775 0.165,-1.155 0.25,-1.75c0.75,-2.25 0.75,-2.25 2.6875,-4.125c2.30254,-2.05361 2.30254,-2.05361 3.0625,-5.3125c0.33,-0.92812 0.66,-1.85625 1,-2.8125c2.125,-0.875 2.125,-0.875 4,-1c0.0825,-0.78375 0.165,-1.5675 0.25,-2.375c0.64059,-3.09619 1.45447,-5.43848 2.6875,-8.3125c1.92471,-4.60258 2.91055,-9.04516 3.66797,-13.96484c0.39453,-2.34766 0.39453,-2.34766 1.39453,-5.34766c0.12343,-2.74134 0.18514,-5.44619 0.1875,-8.1875c0.01225,-0.73025 0.02449,-1.46051 0.03711,-2.21289c0.01383,-5.20315 -0.85793,-9.58321 -2.22461,-14.59961c-0.20799,-1.55754 -0.38413,-3.12041 -0.5,-4.6875c-0.32524,-3.44757 -1.16456,-6.10744 -2.5,-9.3125c-0.125,-2.8125 -0.125,-2.8125 0,-5c-0.66,0 -1.32,0 -2,0c-0.33,-2.64 -0.66,-5.28 -1,-8c-0.66,0 -1.32,0 -2,0c-0.33,-1.98 -0.66,-3.96 -1,-6c-0.66,0 -1.32,0 -2,0c0,1.65 0,3.3 0,5c-0.66,0 -1.32,0 -2,0c-0.33,-3.63 -0.66,-7.26 -1,-11c-0.66,0 -1.32,0 -2,0c-0.33,-1.65 -0.66,-3.3 -1,-5z"/>
   <path id="svg_8" fill="#15334D" d="m202,77c0.495,1.485 0.495,1.485 1,3c0.66,0 1.32,0 2,0c0.495,2.97 0.495,2.97 1,6c0.66,0 1.32,0 2,0c0.495,3.96 0.495,3.96 1,8c0.66,0 1.32,0 2,0c2.10941,6.35637 3.56253,12.61697 4.57031,19.23828c0.38514,2.70177 0.38514,2.70177 0.97266,5.08985c0.63291,3.70008 0.64128,7.36749 0.64453,11.10937c0.01225,0.73799 0.02449,1.47598 0.03711,2.23633c0.0121,4.53949 -0.61898,8.0284 -2.22461,12.32617c-0.30322,1.68198 -0.57446,3.37006 -0.8125,5.0625c-1.14144,6.53407 -2.96323,13.11244 -6.1875,18.9375c-2.16406,0.86719 -2.16406,0.86719 -4,1c-0.09281,1.33031 -0.09281,1.33031 -0.1875,2.6875c-1.00005,4.07712 -2.77837,5.50593 -5.8125,8.3125c-0.495,1.485 -0.495,1.485 -1,3c-0.66,0 -1.32,0 -2,0c0,0.66 0,1.32 0,2c-1.65003,1.35387 -3.31744,2.68678 -5,4c-0.33,0.66 -0.66,1.32 -1,2c-0.99,0 -1.98,0 -3,0c0,0.66 0,1.32 0,2c-5.41176,4 -5.41176,4 -8,4c0,0.66 0,1.32 0,2c-1.43429,0.67354 -2.87257,1.3386 -4.3125,2c-0.80051,0.37125 -1.60102,0.7425 -2.42578,1.125c-2.26172,0.875 -2.26172,0.875 -5.26172,0.875c-0.26812,-1.05187 -0.53625,-2.10375 -0.8125,-3.1875c-1.05911,-3.40031 -2.31285,-5.8301 -4.1875,-8.8125c0,-0.66 0,-1.32 0,-2c-0.66,-0.33 -1.32,-0.66 -2,-1c2.906,-1.25665 4.79605,-2 8,-2c0,-0.66 0,-1.32 0,-2c1.98,0 3.96,0 6,0c0.26813,0.63938 0.53625,1.27875 0.8125,1.9375c1.07418,2.39382 1.07418,2.39382 4.1875,3.0625c0,0.66 0,1.32 0,2c1.65,0 3.3,0 5,0c0.09797,-0.94102 0.19594,-1.88203 0.29687,-2.85156c1.4923,-12.4272 1.4923,-12.4272 5.70313,-17.14844c0.53625,-0.61875 1.0725,-1.2375 1.625,-1.875c1.375,-1.125 1.375,-1.125 3.375,-1.125c0.2475,-0.66 0.495,-1.32 0.75,-2c1.30518,-3.13243 2.79353,-6.1184 4.34766,-9.13281c1.02237,-2.01383 1.02237,-2.01383 1.90234,-4.86719c0.66,0 1.32,0 2,0c0.12375,-1.19625 0.2475,-2.3925 0.375,-3.625c0.44825,-3.65097 1.32947,-6.92025 2.625,-10.375c0.66,0 1.32,0 2,0c-0.0116,-0.59684 -0.0232,-1.19367 -0.03516,-1.80859c-0.09111,-8.75951 0.46166,-17.45579 1.03516,-26.19141c-0.66,0 -1.32,0 -2,0c-0.10957,-0.93199 -0.21914,-1.86398 -0.33203,-2.82422c-0.94567,-7.60376 -2.17084,-14.93447 -4.08203,-22.37109c-0.56297,-2.69472 -0.69644,-5.06221 -0.58594,-7.80469z"/>
   <path id="svg_9" fill="#56626D" d="m114,193c7.92,0 15.84,0 24,0c0,4.62 0,9.24 0,14c0.66,0 1.32,0 2,0c0,-0.66 0,-1.32 0,-2c1.32,-0.33 2.64,-0.66 4,-1c0,-0.66 0,-1.32 0,-2c1.4364,-0.19574 2.8742,-0.38128 4.3125,-0.5625c0.80051,-0.10441 1.60102,-0.20883 2.42578,-0.31641c2.26172,-0.12109 2.26172,-0.12109 5.26172,0.87891c0,0.66 0,1.32 0,2c0.99,0.33 1.98,0.66 3,1c0,0.66 0,1.32 0,2c-1.98,0.33 -3.96,0.66 -6,1c0,0.66 0,1.32 0,2c-18.6666,5.61 -43.21327,5.89336 -61,-3c0,-2 0,-2 1.15625,-3.57812c2.45712,-1.89491 4.26947,-1.95701 7.34375,-2.17188c0.95906,-0.07734 1.91812,-0.15469 2.90625,-0.23437c2.59375,-0.01563 2.59375,-0.01563 5.59375,0.98437c0,0.66 0,1.32 0,2c2.475,0.495 2.475,0.495 5,1c0,-3.96 0,-7.92 0,-12z"/>
   <path id="svg_10" fill="#B7B5B6" d="m130,109c0.33,0 0.66,0 1,0c0,2.97 0,5.94 0,9c1.14469,0.15469 1.14469,0.15469 2.3125,0.3125c2.87166,0.73461 3.91792,1.35911 5.6875,3.6875c0,0.66 0,1.32 0,2c0.66,0 1.32,0 2,0c1.28318,3.84954 1.06644,6.94738 1,11c-0.33,0 -0.66,0 -1,0c-0.495,-2.475 -0.495,-2.475 -1,-5c-1.77706,2.66559 -2.87548,5.02806 -4,8c-0.66,0 -1.32,0 -2,0c-0.33,0.99 -0.66,1.98 -1,3c-8.26494,0.36643 -13.82733,0.17035 -20.9375,-4.1875c-1.78126,-3.03862 -1.42231,-6.38043 -1.0625,-9.8125c0.495,-1.485 0.495,-1.485 1,-3c0.66,0 1.32,0 2,0c0.33,-0.99 0.66,-1.98 1,-3c0.66,0 1.32,0 2,0c0,-0.66 0,-1.32 0,-2c1.65,-0.33 3.3,-0.66 5,-1c0,-2.64 0,-5.28 0,-8c0.33,0 0.66,0 1,0c0,1.98 0,3.96 0,6c2.31,0 4.62,0 7,0c0,-2.31 0,-4.62 0,-7z"/>
   <path id="svg_11" fill="#BEBDBE" d="m163.4375,103.8125c0.94746,-0.01418 1.89492,-0.02836 2.87109,-0.04297c2.73643,0.23432 4.35569,0.83346 6.69141,2.23047c0,0.66 0,1.32 0,2c0.66,0 1.32,0 2,0c0.90954,3.10398 1.13464,5.8951 1.125,9.125c0.00387,1.30324 0.00387,1.30324 0.00781,2.63281c-0.13281,2.24219 -0.13281,2.24219 -1.13281,4.24219c-0.66,0 -1.32,0 -2,0c-0.33,0.99 -0.66,1.98 -1,3c-0.66,0 -1.32,0 -2,0c0,0.66 0,1.32 0,2c-2.67644,0.89215 -4.25384,1.1354 -7,1.125c-1.02094,0.00387 -1.02094,0.00387 -2.0625,0.00781c-1.9375,-0.13281 -1.9375,-0.13281 -4.9375,-1.13281c-0.6875,-2.0625 -0.6875,-2.0625 -1,-4c-0.63937,-0.10312 -1.27875,-0.20625 -1.9375,-0.3125c-0.68062,-0.22687 -1.36125,-0.45375 -2.0625,-0.6875c-0.89215,-2.67644 -1.1354,-4.25384 -1.125,-7c-0.00258,-0.68062 -0.00516,-1.36125 -0.00781,-2.0625c0.13281,-1.9375 0.13281,-1.9375 1.13281,-4.9375c0.66,0 1.32,0 2,0c0,-0.99 0,-1.98 0,-3c0.66,0 1.32,0 2,0c0,-0.66 0,-1.32 0,-2c3.05106,-1.01702 5.24199,-1.16582 8.4375,-1.1875z"/>
   <path id="svg_12" fill="#BEBDBE" d="m100.5,103.875c1.43859,-0.00387 1.43859,-0.00387 2.90625,-0.00781c2.59375,0.13281 2.59375,0.13281 5.59375,1.13281c0,0.66 0,1.32 0,2c0.99,0.33 1.98,0.66 3,1c0,0.99 0,1.98 0,3c0.66,0 1.32,0 2,0c0,3.3 0,6.6 0,10c-0.66,0 -1.32,0 -2,0c-0.33,1.32 -0.66,2.64 -1,4c-0.66,0 -1.32,0 -2,0c-0.10313,0.63938 -0.20625,1.27875 -0.3125,1.9375c-0.22687,0.68062 -0.45375,1.36125 -0.6875,2.0625c-2.67644,0.89215 -4.25384,1.1354 -7,1.125c-1.02094,0.00387 -1.02094,0.00387 -2.0625,0.00781c-1.9375,-0.13281 -1.9375,-0.13281 -4.9375,-1.13281c0,-0.66 0,-1.32 0,-2c-0.66,0 -1.32,0 -2,0c-2.3487,-1.97291 -3.00102,-3.00307 -4,-6c-0.25804,-5.2469 0.02118,-9.05296 2,-14c0.66,0 1.32,0 2,0c0,-0.66 0,-1.32 0,-2c3.08506,-1.02835 5.26943,-1.13368 8.5,-1.125z"/>
   <path id="svg_13" fill="#941318" d="m190,144c0.66,0.33 1.32,0.66 2,1c0.99,0 1.98,0 3,0c-0.33,3.3 -0.66,6.6 -1,10c-0.66,0 -1.32,0 -2,0c0,2.64 0,5.28 0,8c-0.66,0 -1.32,0 -2,0c-0.04898,0.62648 -0.09797,1.25297 -0.14844,1.89844c-0.07476,0.81726 -0.14953,1.63453 -0.22656,2.47656c-0.06961,0.81211 -0.13922,1.62422 -0.21094,2.46094c-0.41406,2.16406 -0.41406,2.16406 -2.41406,4.16406c0,-2.31 0,-4.62 0,-7c-0.33,0.33 -0.66,0.66 -1,1c-2.3125,0.375 -2.3125,0.375 -5,0c-2.3125,-2.5 -2.3125,-2.5 -4,-5c-0.99,2.64 -1.98,5.28 -3,8c-2.375,-0.25 -2.375,-0.25 -5,-1c-1.3125,-2.0625 -1.3125,-2.0625 -2,-4c-0.66,0 -1.32,0 -2,0c0,-0.99 0,-1.98 0,-3c1.32,0.33 2.64,0.66 4,1c0,0.66 0,1.32 0,2c1.7084,-1.63412 2.93453,-2.86906 4,-5c0.66,0 1.32,0 2,0c0,-0.99 0,-1.98 0,-3c-0.66,-0.33 -1.32,-0.66 -2,-1c0,-0.66 0,-1.32 0,-2c-0.99,-0.33 -1.98,-0.66 -3,-1c0,-0.66 0,-1.32 0,-2c-0.99,0 -1.98,0 -3,0c0.06188,1.11375 0.12375,2.2275 0.1875,3.375c-0.06188,1.19625 -0.12375,2.3925 -0.1875,3.625c-0.99,0.66 -1.98,1.32 -3,2c-0.99,-0.66 -1.98,-1.32 -3,-2c0,-0.66 0,-1.32 0,-2c-0.66,0 -1.32,0 -2,0c-0.33,-0.99 -0.66,-1.98 -1,-3c2.97,0.495 2.97,0.495 6,1c0.33,-1.65 0.66,-3.3 1,-5c3.55293,-1.14948 4.79977,-1.08689 8.3125,0.4375c0.88687,0.51563 1.77375,1.03125 2.6875,1.5625c0,-0.66 0,-1.32 0,-2c0.66,0 1.32,0 2,0c0,-1.32 0,-2.64 0,-4c2.475,0.495 2.475,0.495 5,1c0,0.66 0,1.32 0,2c2.4448,-0.18829 2.4448,-0.18829 5,-1c1.3602,-1.96758 1.3602,-1.96758 2,-4z"/>
   <path id="svg_14" fill="#AB9183" d="m139,126c1.93789,3.359 2.92779,6.1006 3,10c-1.09473,2.68859 -2.37498,5.18747 -3.77344,7.73047c-1.34118,2.3253 -1.34118,2.3253 -2.22656,5.26953c-1.4375,1.6875 -1.4375,1.6875 -3,3c-0.66,0 -1.32,0 -2,0c0,0.99 0,1.98 0,3c-0.66,0 -1.32,0 -2,0c-0.33,2.64 -0.66,5.28 -1,8c-0.99,0 -1.98,0 -3,0c0,-0.99 0,-1.98 0,-3c-0.66,0 -1.32,0 -2,0c-0.33,-1.98 -0.66,-3.96 -1,-6c-0.66,0 -1.32,0 -2,0c-0.33,-1.65 -0.66,-3.3 -1,-5c-0.66,0 -1.32,0 -2,0c0,-0.99 0,-1.98 0,-3c-0.66,0 -1.32,0 -2,0c-0.33,-1.65 -0.66,-3.3 -1,-5c-0.66,0 -1.32,0 -2,0c0,-0.99 0,-1.98 0,-3c-0.99,0 -1.98,0 -3,0c0,-0.66 0,-1.32 0,-2c1.32,-0.33 2.64,-0.66 4,-1c0.33,0.99 0.66,1.98 1,3c1.89179,0.68148 1.89179,0.68148 4,1c0.99,0.33 1.98,0.66 3,1c2.06145,0.06899 4.12501,0.08468 6.1875,0.0625c1.08668,-0.00902 2.17336,-0.01805 3.29297,-0.02734c0.83144,-0.01161 1.66289,-0.02321 2.51953,-0.03516c0.33,-0.66 0.66,-1.32 1,-2c0.66,0 1.32,0 2,0c0.12375,-0.68062 0.2475,-1.36125 0.375,-2.0625c0.71601,-3.36524 1.65445,-6.63763 2.625,-9.9375z"/>
   <path id="svg_15" fill="#EE4820" d="m58,143c1.98,0.66 3.96,1.32 6,2c-0.99,0.495 -0.99,0.495 -2,1c0.99,2.64 1.98,5.28 3,8c1.32,0 2.64,0 4,0c0.33,-2.31 0.66,-4.62 1,-7c1.32,-0.33 2.64,-0.66 4,-1c0,0.99 0,1.98 0,3c0.99,0 1.98,0 3,0c0.33,0.99 0.66,1.98 1,3c-0.66,0 -1.32,0 -2,0c0,1.65 0,3.3 0,5c1.32,0 2.64,0 4,0c1.12516,-1.83284 1.12516,-1.83284 2,-4c-0.33,-0.99 -0.66,-1.98 -1,-3c3.465,-0.495 3.465,-0.495 7,-1c-0.33,2.97 -0.66,5.94 -1,9c0.66,0 1.32,0 2,0c0,1.65 0,3.3 0,5c-1.65,0.33 -3.3,0.66 -5,1c0,0.66 0,1.32 0,2c-0.99,0 -1.98,0 -3,0c-0.495,-2.475 -0.495,-2.475 -1,-5c-2.31,0 -4.62,0 -7,0c0,0.66 0,1.32 0,2c-1.32,0 -2.64,0 -4,0c0,-0.66 0,-1.32 0,-2c-0.66,0 -1.32,0 -2,0c0,-0.99 0,-1.98 0,-3c-0.66,0 -1.32,0 -2,0c0,2.31 0,4.62 0,7c-0.99,0 -1.98,0 -3,0c-0.33,-3.3 -0.66,-6.6 -1,-10c-0.66,0 -1.32,0 -2,0c-0.33,-3.96 -0.66,-7.92 -1,-12z"/>
   <path id="svg_16" fill="#456597" d="m53,178c0.66,0 1.32,0 2,0c1.34897,1.55628 2.63065,3.17136 3.875,4.8125c2.47994,3.2673 4.71448,5.88578 8.125,8.1875c0,-1.98 0,-3.96 0,-6c0.66,0 1.32,0 2,0c0,2.97 0,5.94 0,9c3.72755,-1.24252 5.274,-3.20752 8,-6c1.9375,-1.875 1.9375,-1.875 4,-3c3.25,0.3125 3.25,0.3125 6,1c0,0.66 0,1.32 0,2c0.99,0 1.98,0 3,0c0.495,1.485 0.495,1.485 1,3c-0.66,0 -1.32,0 -2,0c-0.14437,0.80438 -0.28875,1.60875 -0.4375,2.4375c-0.5625,2.5625 -0.5625,2.5625 -1.5625,3.5625c-0.23075,1.34747 -0.41153,2.70378 -0.5625,4.0625c-0.14437,1.29938 -0.28875,2.59875 -0.4375,3.9375c-2.64,-0.33 -5.28,-0.66 -8,-1c0,-1.32 0,-2.64 0,-4c-2.64,-0.33 -5.28,-0.66 -8,-1c0,-0.66 0,-1.32 0,-2c-0.58395,-0.2707 -1.16789,-0.54141 -1.76953,-0.82031c-2.2193,-1.17378 -3.99608,-2.44547 -5.91797,-4.05469c-0.60199,-0.49242 -1.20398,-0.98484 -1.82422,-1.49219c-1.69315,-1.85758 -2.09013,-3.1802 -2.48828,-5.63281c-0.66,0 -1.32,0 -2,0c0,-0.99 0,-1.98 0,-3c-0.66,0 -1.32,0 -2,0c-0.33,-1.32 -0.66,-2.64 -1,-4z"/>
   <path id="svg_17" fill="#0D2C49" d="m116,194c6.6,0 13.2,0 20,0c0,0.99 0,1.98 0,3c-0.66,0 -1.32,0 -2,0c0,3.3 0,6.6 0,10c0.66,0 1.32,0 2,0c0,1.32 0,2.64 0,4c-6.6,0 -13.2,0 -20,0c0,-5.61 0,-11.22 0,-17z"/>
   <path id="svg_18" fill="#122D47" d="m167,184c1.98,0 3.96,0 6,0c0.26813,0.63938 0.53625,1.27875 0.8125,1.9375c1.07418,2.39382 1.07418,2.39382 4.1875,3.0625c0,0.66 0,1.32 0,2c1.98,0 3.96,0 6,0c-0.1875,1.875 -0.1875,1.875 -1,4c-2.5625,1.25 -2.5625,1.25 -5,2c0,0.66 0,1.32 0,2c-1.43429,0.67354 -2.87257,1.3386 -4.3125,2c-0.80051,0.37125 -1.60102,0.7425 -2.42578,1.125c-2.26172,0.875 -2.26172,0.875 -5.26172,0.875c-0.26812,-1.05187 -0.53625,-2.10375 -0.8125,-3.1875c-1.05911,-3.40031 -2.31285,-5.8301 -4.1875,-8.8125c0,-0.66 0,-1.32 0,-2c-0.66,-0.33 -1.32,-0.66 -2,-1c2.906,-1.25665 4.79605,-2 8,-2c0,-0.66 0,-1.32 0,-2z"/>
   <path id="svg_19" fill="#A4A9B0" d="m101.8125,188.875c1.18529,0.02707 1.18529,0.02707 2.39453,0.05469c0.59168,0.0232 1.18336,0.0464 1.79297,0.07031c0,0.66 0,1.32 0,2c1.65,0 3.3,0 5,0c1.99785,4.12057 2.17836,7.45194 2,12c-1.32,0.33 -2.64,0.66 -4,1c0,-0.66 0,-1.32 0,-2c-5.7776,-0.12037 -11.2796,0.16794 -17,1c0,-3.96 0,-7.92 0,-12c4.17643,-1.67057 5.66896,-2.24869 9.8125,-2.125z"/>
   <path id="svg_20" fill="#B4B4B5" d="m159.0625,191.5625c2.83575,3.56756 2.31026,5.96435 1.9375,10.4375c-3.25009,1.08336 -4.8961,0.91221 -8.25,0.5c-4.53482,-0.48115 -8.28355,-0.27677 -12.75,0.5c-1,-1 -1,-1 -1.25,-3.75c0.28405,-3.6927 0.93667,-5.37828 3.25,-8.25c5.28792,-3.42159 11.73499,-2.15562 17.0625,0.5625z"/>
   <path id="svg_21" fill="#D3D3D3" d="m126.25,120.8125c1.33805,0.04061 1.33805,0.04061 2.70313,0.08203c0.67546,0.03481 1.35093,0.06961 2.04687,0.10547c0,0.99 0,1.98 0,3c0.66,0 1.32,0 2,0c0.90228,7.66937 0.90228,7.66937 -1.16016,10.71094c-2.47743,2.1923 -4.42719,3.24421 -7.71484,3.60156c-0.70125,-0.10312 -1.4025,-0.20625 -2.125,-0.3125c0,-0.99 0,-1.98 0,-3c-1.65,0 -3.3,0 -5,0c-0.10815,-1.76949 -0.18566,-3.54087 -0.25,-5.3125c-0.04641,-0.98613 -0.09281,-1.97227 -0.14063,-2.98828c0.39063,-2.69922 0.39063,-2.69922 2.07813,-4.54297c2.74044,-1.37022 4.51617,-1.464 7.5625,-1.34375z"/>
   <path id="svg_22" fill="#777476" d="m145,186c3.63,0 7.26,0 11,0c0,0.66 0,1.32 0,2c0.72188,0 1.44375,0 2.1875,0c3.81975,1.35813 4.89566,3.42256 6.875,6.85547c1.22941,2.81228 1.31562,5.11956 0.9375,8.14453c1.32,-0.33 2.64,-0.66 4,-1c0,0.66 0,1.32 0,2c-0.99,0.33 -1.98,0.66 -3,1c-1.70855,3.00007 -1.70855,3.00007 -3,6c-0.99,-0.33 -1.98,-0.66 -3,-1c0,-0.66 0,-1.32 0,-2c-1.65,0 -3.3,0 -5,0c0.99,-0.33 1.98,-0.66 3,-1c-0.495,-0.45375 -0.99,-0.9075 -1.5,-1.375c-1.5,-1.625 -1.5,-1.625 -1.5,-3.625c1.32,0 2.64,0 4,0c0.33,-2.64 0.66,-5.28 1,-8c-0.99,-0.33 -1.98,-0.66 -3,-1c0,-0.66 0,-1.32 0,-2c-1.72814,-0.19672 -3.45759,-0.38197 -5.1875,-0.5625c-0.96293,-0.10441 -1.92586,-0.20883 -2.91797,-0.31641c-2.87493,-0.12027 -5.14086,0.05475 -7.89453,0.87891c-2.16789,3.61316 -2.19259,6.85941 -2,11c1.32,0 2.64,0 4,0c0,0.66 0,1.32 0,2c-1.32,0.33 -2.64,0.66 -4,1c0,0.66 0,1.32 0,2c-0.66,0 -1.32,0 -2,0c-1.85523,-3.71046 -1.45269,-7.95062 -1,-12c2.6988,-5.49398 2.6988,-5.49398 6.25,-6.875c0.5775,-0.04125 1.155,-0.0825 1.75,-0.125c0,-0.66 0,-1.32 0,-2z"/>
   <path id="svg_23" fill="#2B2829" d="m95,108c3.63,0 7.26,0 11,0c0,0.66 0,1.32 0,2c0.66,0 1.32,0 2,0c0.19574,1.4364 0.38128,2.8742 0.5625,4.3125c0.10441,0.80051 0.20883,1.60102 0.31641,2.42578c0.12109,2.26172 0.12109,2.26172 -0.87891,5.26172c-0.66,0 -1.32,0 -2,0c0,0.66 0,1.32 0,2c-1.77008,0.08114 -3.54122,0.13926 -5.3125,0.1875c-0.98613,0.0348 -1.97227,0.06961 -2.98828,0.10547c-2.69922,-0.29297 -2.69922,-0.29297 -4.54297,-1.54297c-2.05594,-3.11169 -1.33513,-6.11281 -1.15625,-9.75c0.99,0.33 1.98,0.66 3,1c0,0.66 0,1.32 0,2c0.99,-0.33 1.98,-0.66 3,-1c0,-0.99 0,-1.98 0,-3c-1.32,-0.66 -2.64,-1.32 -4,-2c0.33,-0.66 0.66,-1.32 1,-2z"/>
   <path id="svg_24" fill="#2D292A" d="m159,108c1.60333,-0.08122 3.20784,-0.13929 4.8125,-0.1875c1.33998,-0.05221 1.33998,-0.05221 2.70703,-0.10547c2.48047,0.29297 2.48047,0.29297 4.28125,1.49219c1.58093,2.37397 1.59954,3.96445 1.57422,6.80078c0.00773,0.86625 0.01547,1.7325 0.02344,2.625c-0.39844,2.375 -0.39844,2.375 -1.53516,4.17578c-2.71231,1.74566 -4.86214,1.48958 -8.05078,1.38672c-1.08668,-0.02707 -2.17336,-0.05414 -3.29297,-0.08203c-1.24717,-0.05221 -1.24717,-0.05221 -2.51953,-0.10547c-1.68611,-3.89664 -2.19834,-6.73566 -2,-11c0.66,-0.33 1.32,-0.66 2,-1c0.33,0.99 0.66,1.98 1,3c1.65,0.33 3.3,0.66 5,1c0,-1.65 0,-3.3 0,-5c-1.65,0 -3.3,0 -5,0c0.33,-0.99 0.66,-1.98 1,-3z"/>
   <path id="svg_25" fill="#E0E1E5" d="m57,63c0.66,0.33 1.32,0.66 2,1c-3.54495,6.45688 -3.54495,6.45688 -5.9375,9.3125c-6.70552,8.7375 -10.08007,19.74734 -11.60938,30.55078c-0.45312,3.13672 -0.45312,3.13672 -1.45312,4.13672c-0.24513,2.85982 -0.42775,5.69688 -0.5625,8.5625c-0.04246,0.84667 -0.08492,1.69334 -0.12866,2.56567c-0.36956,7.96143 -0.40776,15.90323 -0.30884,23.87183c-0.99,0.495 -0.99,0.495 -2,1c-1.66676,-11.66731 -1.89984,-24.34293 0,-36c0.495,-0.495 0.495,-0.495 1,-1c0.13425,-1.47674 0.23165,-2.95688 0.3125,-4.4375c0.52962,-5.73621 2.31902,-10.35342 4.6875,-15.5625c0.41895,-0.95648 0.83789,-1.91297 1.26953,-2.89844c4.06739,-9.16698 4.06739,-9.16698 6.73047,-13.10156c0.66,0 1.32,0 2,0c0.10312,-0.5775 0.20625,-1.155 0.3125,-1.75c0.78543,-2.57049 1.99254,-4.18657 3.6875,-6.25z"/>
   <path id="svg_26" fill="#615251" d="m136,141c0.33,0 0.66,0 1,0c-0.61142,7.45937 -0.61142,7.45937 -2.4375,10c-1.5625,1 -1.5625,1 -3.5625,1c0,0.99 0,1.98 0,3c-0.66,0 -1.32,0 -2,0c-0.33,2.64 -0.66,5.28 -1,8c-0.99,0 -1.98,0 -3,0c0,-0.99 0,-1.98 0,-3c-0.66,0 -1.32,0 -2,0c-0.33,-1.98 -0.66,-3.96 -1,-6c-0.66,0 -1.32,0 -2,0c-0.33,-1.65 -0.66,-3.3 -1,-5c-0.66,0 -1.32,0 -2,0c0,-0.99 0,-1.98 0,-3c4.62,0 9.24,0 14,0c0,-0.66 0,-1.32 0,-2c1.65,-0.33 3.3,-0.66 5,-1c0,-0.66 0,-1.32 0,-2z"/>
   <path id="svg_27" fill="#9F9D9E" d="m153,208c7.46592,-0.36718 7.46592,-0.36718 10,1.375c1,1.625 1,1.625 1,3.625c-1.32,-0.33 -2.64,-0.66 -4,-1c0,-0.66 0,-1.32 0,-2c-1.63969,0.71156 -1.63969,0.71156 -3.3125,1.4375c-4.45556,1.70078 -8.72912,2.07797 -13.46484,2.35156c-2.19419,-0.02991 -2.19419,-0.02991 -3.22266,1.21094c-2.21855,0.08784 -4.43988,0.10695 -6.66016,0.09766c-0.9967,-0.00213 -0.9967,-0.00213 -2.01353,-0.00429c-2.12965,-0.00561 -4.25919,-0.01817 -6.38881,-0.03087c-1.44075,-0.00501 -2.88151,-0.00958 -4.32227,-0.01367c-3.53844,-0.01105 -7.07683,-0.02832 -10.61523,-0.04883c0,-0.66 0,-1.32 0,-2c-0.55687,0.0232 -1.11375,0.04641 -1.6875,0.07031c-4.14342,0.09799 -7.74919,-0.05013 -11.75,-1.19531c-1.17562,-0.28875 -2.35125,-0.5775 -3.5625,-0.875c-0.66,0.66 -1.32,1.32 -2,2c0,-1.32 0,-2.64 0,-4c2.33414,0.11549 4.66683,0.24218 7,0.375c1.29937,0.06961 2.59875,0.13922 3.9375,0.21094c2.82089,0.21569 5.01843,0.67549 7.80469,1.4375c5.40346,1.44505 10.82447,1.27347 16.38281,1.22656c1.6531,-0.0058 1.6531,-0.0058 3.3396,-0.01172c7.99634,-0.08466 15.6794,-0.66427 23.5354,-2.23828c0,-0.66 0,-1.32 0,-2z"/>
   <path id="svg_28" fill="#193E60" d="m109,202c0,0.66 0,1.32 0,2c0.99,0.33 1.98,0.66 3,1c0,1.32 0,2.64 0,4c0.66,0 1.32,0 2,0c0,0.66 0,1.32 0,2c-7.8249,0.62599 -14.60937,-1.67486 -22,-4c0,-2 0,-2 1.1875,-3.5625c4.64548,-3.68435 10.34572,-2.21166 15.8125,-1.4375z"/>
   <path id="svg_29" fill="#A3A1A1" d="m130,109c0.33,0 0.66,0 1,0c0,2.97 0,5.94 0,9c1.14469,0.15469 1.14469,0.15469 2.3125,0.3125c2.87166,0.73461 3.91792,1.35911 5.6875,3.6875c0,0.66 0,1.32 0,2c0.66,0 1.32,0 2,0c1.28318,3.84954 1.06644,6.94738 1,11c-0.33,0 -0.66,0 -1,0c-0.495,-2.475 -0.495,-2.475 -1,-5c-1.77706,2.66559 -2.87548,5.02806 -4,8c-0.66,0 -1.32,0 -2,0c-0.33,0.99 -0.66,1.98 -1,3c-1.91635,0.05424 -3.83315,0.0929 -5.75,0.125c-1.06734,0.0232 -2.13469,0.04641 -3.23438,0.07031c-2.94032,-0.19043 -4.53924,-0.66861 -7.01562,-2.19531c1.9375,-0.5625 1.9375,-0.5625 4,-1c0.33,0.33 0.66,0.66 1,1c1.85772,-0.08984 3.71248,-0.24612 5.5625,-0.4375c1.01191,-0.10184 2.02383,-0.20367 3.06641,-0.30859c0.78246,-0.08379 1.56492,-0.16758 2.37109,-0.25391c1.97514,-4.93785 2.26186,-8.76273 2,-14c-0.33,-0.66 -0.66,-1.32 -1,-2c-0.99,-0.33 -1.98,-0.66 -3,-1c0,-0.66 0,-1.32 0,-2c-2.97,-0.33 -5.94,-0.66 -9,-1c0,-2.64 0,-5.28 0,-8c0.33,0 0.66,0 1,0c0,1.98 0,3.96 0,6c2.31,0 4.62,0 7,0c0,-2.31 0,-4.62 0,-7z"/>
   <path id="svg_30" fill="#10304C" d="m151.6875,201.4375c0.80824,0.10184 1.61648,0.20367 2.44922,0.30859c0.61488,0.08379 1.22976,0.16758 1.86328,0.25391c0,0.66 0,1.32 0,2c0.99,0.33 1.98,0.66 3,1c0,0.66 0,1.32 0,2c-1.98,0.33 -3.96,0.66 -6,1c0,0.66 0,1.32 0,2c-4.62,0 -9.24,0 -14,0c0.33,-1.65 0.66,-3.3 1,-5c1.32,-0.33 2.64,-0.66 4,-1c0,-0.66 0,-1.32 0,-2c3.09479,-1.0316 4.52631,-0.97483 7.6875,-0.5625z"/>
   <path id="svg_31" fill="#E64E2F" d="m58,143c1.98,0.66 3.96,1.32 6,2c-0.99,0.495 -0.99,0.495 -2,1c0.39652,1.31873 0.81799,2.62997 1.25,3.9375c0.23203,0.7309 0.46406,1.4618 0.70313,2.21484c0.89763,2.05337 0.89763,2.05337 3.15625,2.60157c0.93585,0.12181 0.93585,0.12181 1.89062,0.24609c-0.99,1.485 -0.99,1.485 -2,3c-0.66,0 -1.32,0 -2,0c0,2.31 0,4.62 0,7c-0.99,0 -1.98,0 -3,0c-0.33,-3.3 -0.66,-6.6 -1,-10c-0.66,0 -1.32,0 -2,0c-0.33,-3.96 -0.66,-7.92 -1,-12zm16,3c0,0.99 0,1.98 0,3c0.99,0 1.98,0 3,0c0.33,0.99 0.66,1.98 1,3c-2.49065,0.68708 -4.37886,1 -7,1c-0.99,0.495 -0.99,0.495 -2,1c0.25561,-2.34312 0.59271,-4.67843 1,-7c2,-1 2,-1 4,-1z"/>
   <path id="svg_32" fill="#F6B059" d="m77,87c1.0445,3.1335 0.93424,3.98968 0,7c-0.66,0 -1.32,0 -2,0c0,0.66 0,1.32 0,2c-0.99,0.495 -0.99,0.495 -2,1c-0.33,0.99 -0.66,1.98 -1,3c-0.66,0 -1.32,0 -2,0c0,8.25 0,16.5 0,25c-0.66,0 -1.32,0 -2,0c-0.66,-5.61 -1.32,-11.22 -2,-17c-0.66,0.33 -1.32,0.66 -2,1c0.33,-2.31 0.66,-4.62 1,-7c0.66,0 1.32,0 2,0c0,-0.99 0,-1.98 0,-3c0.66,0 1.32,0 2,0c0.28875,-0.5775 0.5775,-1.155 0.875,-1.75c1.04167,-2.08333 2.08333,-4.16667 3.125,-6.25c0.66,0 1.32,0 2,0c0,-0.99 0,-1.98 0,-3c0.66,-0.33 1.32,-0.66 2,-1z"/>
   <path id="svg_33" fill="#A9A8A8" d="m101.8125,188.875c1.18529,0.02707 1.18529,0.02707 2.39453,0.05469c0.59168,0.0232 1.18336,0.0464 1.79297,0.07031c0,0.66 0,1.32 0,2c1.65,0 3.3,0 5,0c1.99785,4.12057 2.17836,7.45194 2,12c-1.32,0.33 -2.64,0.66 -4,1c0,-0.66 0,-1.32 0,-2c0.66,0 1.32,0 2,0c-0.33,-2.64 -0.66,-5.28 -1,-8c-1.32,0 -2.64,0 -4,0c0,-0.66 0,-1.32 0,-2c-3.63,0.66 -7.26,1.32 -11,2c0,2.97 0,5.94 0,9c-0.99,0 -1.98,0 -3,0c0,-3.96 0,-7.92 0,-12c4.17643,-1.67057 5.66896,-2.24869 9.8125,-2.125z"/>
   <path id="svg_34" fill="#5F7A9D" d="m136,46c2.97,0.495 2.97,0.495 6,1c0,0.66 0,1.32 0,2c2.475,0.495 2.475,0.495 5,1c0,0.66 0,1.32 0,2c1.65,0 3.3,0 5,0c0.495,1.485 0.495,1.485 1,3c0.66,0 1.32,0 2,0c0,0.66 0,1.32 0,2c-3.3,-0.99 -6.6,-1.98 -10,-3c0,-0.66 0,-1.32 0,-2c-10.23,0 -20.46,0 -31,0c0,-0.66 0,-1.32 0,-2c5.48269,-1.15665 10.80339,-1.11416 16.375,-1.0625c0.92684,0.00451 1.85367,0.00902 2.80859,0.01367c2.27221,0.01171 4.54427,0.02812 6.81641,0.04883c-1.32,-0.66 -2.64,-1.32 -4,-2c0,-0.33 0,-0.66 0,-1z"/>
   <path id="svg_35" fill="#BDBCBD" d="m124,117.875c0.68063,-0.00258 1.36125,-0.00516 2.0625,-0.00781c1.9375,0.13281 1.9375,0.13281 4.9375,1.13281c0,0.66 0,1.32 0,2c-0.67547,0.04898 -1.35094,0.09797 -2.04687,0.14844c-0.89204,0.07476 -1.78407,0.14953 -2.70313,0.22656c-0.88172,0.06961 -1.76344,0.13922 -2.67188,0.21094c-2.9248,0.33763 -2.9248,0.33763 -6.57812,2.41406c0,3.63 0,7.26 0,11c-0.66,0 -1.32,0 -2,0c-0.66,-1.98 -1.32,-3.96 -2,-6c-0.66,0 -1.32,0 -2,0c0.33,-1.65 0.66,-3.3 1,-5c0.66,0 1.32,0 2,0c0.33,-0.99 0.66,-1.98 1,-3c0.66,0 1.32,0 2,0c0,-0.66 0,-1.32 0,-2c2.67644,-0.89215 4.25384,-1.1354 7,-1.125z"/>
   <path id="svg_36" fill="#73767B" d="m91,193c0.33,0 0.66,0 1,0c0,3.3 0,6.6 0,10c0.99,0.33 1.98,0.66 3,1c-0.99,0.33 -1.98,0.66 -3,1c0,0.66 0,1.32 0,2c3.63,0.66 7.26,1.32 11,2c0,0.33 0,0.66 0,1c-3.96,-0.33 -7.92,-0.66 -12,-1c0,1.32 0,2.64 0,4c-1.8125,-0.0625 -1.8125,-0.0625 -4,-1c-1.75,-3.5625 -1.75,-3.5625 -3,-7c0.66,0 1.32,0 2,0c0.99,1.485 0.99,1.485 2,3c0.04898,-0.91523 0.09797,-1.83047 0.14844,-2.77344c0.07476,-1.18851 0.14953,-2.37703 0.22656,-3.60156c0.06961,-1.18336 0.13922,-2.36672 0.21094,-3.58594c0.41406,-3.03906 0.41406,-3.03906 2.41406,-5.03906z"/>
   <path id="svg_37" fill="#DC4F54" d="m176,88c0.66,0 1.32,0 2,0c0,0.66 0,1.32 0,2c0.99,0.33 1.98,0.66 3,1c0,0.99 0,1.98 0,3c0.66,0 1.32,0 2,0c0.33,1.65 0.66,3.3 1,5c0.66,0 1.32,0 2,0c0.33,1.65 0.66,3.3 1,5c-0.33,0 -0.66,0 -1,0c0,4.62 0,9.24 0,14c-0.66,0 -1.32,0 -2,0c-0.04898,-1.04801 -0.09797,-2.09602 -0.14844,-3.17578c-0.07504,-1.37893 -0.15059,-2.75784 -0.22656,-4.13672c-0.03094,-0.69029 -0.06187,-1.38059 -0.09375,-2.0918c-0.2125,-3.66561 -0.45059,-5.47471 -2.53125,-8.5957c0,-0.99 0,-1.98 0,-3c-0.99,-0.33 -1.98,-0.66 -3,-1c0,-0.66 0,-1.32 0,-2c-0.99,-0.33 -1.98,-0.66 -3,-1c0.33,-1.65 0.66,-3.3 1,-5z"/>
   <path id="svg_38" fill="#D5D7DC" d="m38,109c0.33,0 0.66,0 1,0c0,11.22 0,22.44 0,34c-0.99,0.495 -0.99,0.495 -2,1c-1.65468,-11.58279 -2.06128,-23.62954 1,-35z"/>
   <path id="svg_39" fill="#81829C" d="m53,178c0.66,0 1.32,0 2,0c1.34897,1.55628 2.63065,3.17136 3.875,4.8125c2.47994,3.2673 4.71448,5.88578 8.125,8.1875c0,-1.98 0,-3.96 0,-6c0.66,0 1.32,0 2,0c0,3.63 0,7.26 0,11c1.32,0.33 2.64,0.66 4,1c0,0.66 0,1.32 0,2c-0.99,0 -1.98,0 -3,0c0,-0.66 0,-1.32 0,-2c-0.58395,-0.2707 -1.16789,-0.54141 -1.76953,-0.82031c-2.2193,-1.17378 -3.99608,-2.44547 -5.91797,-4.05469c-0.60199,-0.49242 -1.20398,-0.98484 -1.82422,-1.49219c-1.69315,-1.85758 -2.09013,-3.1802 -2.48828,-5.63281c-0.66,0 -1.32,0 -2,0c0,-0.99 0,-1.98 0,-3c-0.66,0 -1.32,0 -2,0c-0.33,-1.32 -0.66,-2.64 -1,-4z"/>
   <path id="svg_40" fill="#45596A" d="m202,77c0.33,0.99 0.66,1.98 1,3c0.66,0 1.32,0 2,0c0.33,1.98 0.66,3.96 1,6c0.66,0 1.32,0 2,0c0.33,2.31 0.66,4.62 1,7c-0.66,0 -1.32,0 -2,0c0.165,0.76312 0.33,1.52625 0.5,2.3125c0.66562,4.90896 0.5792,9.74185 0.5,14.6875c-0.33,0 -0.66,0 -1,0c-0.10957,-0.93199 -0.21914,-1.86398 -0.33203,-2.82422c-0.94567,-7.60376 -2.17084,-14.93447 -4.08203,-22.37109c-0.56297,-2.69472 -0.69644,-5.06221 -0.58594,-7.80469z"/>
   <path id="svg_41" fill="#7C8289" d="m197,69c5.08773,2.32582 7.65914,6.05928 10,11c0,0.99 0,1.98 0,3c0.66,0 1.32,0 2,0c1.28318,3.84954 1.06644,6.94738 1,11c-2.15194,-3.22792 -2.20086,-4.28401 -2,-8c-0.66,0 -1.32,0 -2,0c-0.33,-1.98 -0.66,-3.96 -1,-6c-0.66,0 -1.32,0 -2,0c0,1.65 0,3.3 0,5c-0.66,0 -1.32,0 -2,0c-0.33,-3.63 -0.66,-7.26 -1,-11c-0.66,0 -1.32,0 -2,0c-0.33,-1.65 -0.66,-3.3 -1,-5z"/>
   <path id="svg_42" fill="#761013" d="m185,159c1.65,0.33 3.3,0.66 5,1c-0.11383,1.95901 -0.24141,3.91723 -0.375,5.875c-0.06961,1.09055 -0.13922,2.18109 -0.21094,3.30469c-0.41406,2.82031 -0.41406,2.82031 -2.41406,4.82031c0,-2.31 0,-4.62 0,-7c-0.33,0.33 -0.66,0.66 -1,1c-1.66617,0.04064 -3.33388,0.04272 -5,0c-0.66,-1.65 -1.32,-3.3 -2,-5c1.65,0 3.3,0 5,0c0.33,-1.32 0.66,-2.64 1,-4z"/>
   <path id="svg_43" fill="#7C7A7A" d="m139,126c1.91671,3.3223 2.85198,6.15151 3,10c-1.08418,2.81989 -2.4638,5.40231 -4,8c-0.66,-0.33 -1.32,-0.66 -2,-1c-1.67655,0.27942 -3.34608,0.60828 -5,1c0.66,-0.33 1.32,-0.66 2,-1c0.65555,-2.52733 0.65555,-2.52733 1,-5c0.66,0 1.32,0 2,0c0.12375,-0.68062 0.2475,-1.36125 0.375,-2.0625c0.71601,-3.36524 1.65445,-6.63763 2.625,-9.9375z"/>
   <path id="svg_44" fill="#D8D6D6" d="m106,194c0,0.66 0,1.32 0,2c0.66,0 1.32,0 2,0c0,1.32 0,2.64 0,4c-4.29,0 -8.58,0 -13,0c1.66389,-6.65555 4.83248,-6.23274 11,-6z"/>
   <path id="svg_45" fill="#CAC9C9" d="m154,194c0,0.66 0,1.32 0,2c0.66,0 1.32,0 2,0c0,1.32 0,2.64 0,4c-4.29,0 -8.58,0 -13,0c1.66389,-6.65555 4.83248,-6.23274 11,-6z"/>
   <path id="svg_46" fill="#6B6169" d="m90,188c1.65,0 3.3,0 5,0c0,0.99 0,1.98 0,3c-0.99,0 -1.98,0 -3,0c-2.2685,3.65173 -2.3896,7.01271 -2.625,11.25c-0.07477,1.26328 -0.14953,2.52656 -0.22656,3.82813c-0.04899,0.96421 -0.09797,1.92843 -0.14844,2.92187c-3,-2 -3,-2 -3.43359,-4.13672c-0.00957,-6.24397 0.97622,-9.67723 4.43359,-14.86328c0,-0.66 0,-1.32 0,-2z"/>
   <path id="svg_47" fill="#A21318" d="m172,150c0.33,0.66 0.66,1.32 1,2c-1.98,0 -3.96,0 -6,0c0.06187,1.11375 0.12375,2.2275 0.1875,3.375c-0.06188,1.19625 -0.12375,2.3925 -0.1875,3.625c-0.99,0.66 -1.98,1.32 -3,2c-0.99,-0.66 -1.98,-1.32 -3,-2c0,-0.66 0,-1.32 0,-2c-0.66,0 -1.32,0 -2,0c-0.33,-0.99 -0.66,-1.98 -1,-3c2.97,0.495 2.97,0.495 6,1c0.18562,-1.20656 0.18562,-1.20656 0.375,-2.4375c0.20625,-0.84563 0.4125,-1.69125 0.625,-2.5625c2.69766,-1.34883 4.15164,-0.80338 7,0z"/>
   <path id="svg_48" fill="#9C9B9B" d="m207,171c0.33,0.99 0.66,1.98 1,3c-1.42211,2.22958 -2.8476,4.20269 -4.5,6.25c-0.45617,0.57903 -0.91233,1.15806 -1.38232,1.75464c-3.43782,4.30361 -7.09066,8.23097 -11.11768,11.99536c-0.66,-0.33 -1.32,-0.66 -2,-1c0.95117,-1.17251 1.91117,-2.33787 2.875,-3.5c0.53367,-0.64969 1.06734,-1.29938 1.61719,-1.96875c0.49758,-0.50531 0.99515,-1.01062 1.50781,-1.53125c0.66,0 1.32,0 2,0c0,-1.32 0,-2.64 0,-4c0.66,0 1.32,0 2,0c0.33,-0.99 0.66,-1.98 1,-3c0.66,0 1.32,0 2,0c0.26812,-0.5775 0.53625,-1.155 0.8125,-1.75c1.2047,-2.28259 2.59548,-4.22379 4.1875,-6.25z"/>
   <path id="svg_49" fill="#9B999A" d="m153,208c7.46592,-0.36718 7.46592,-0.36718 10,1.375c1,1.625 1,1.625 1,3.625c-1.32,-0.33 -2.64,-0.66 -4,-1c0,-0.66 0,-1.32 0,-2c-1.05187,0.495 -2.10375,0.99 -3.1875,1.5c-5.78965,2.22197 -11.7078,1.75126 -17.8125,1.5c0,-0.33 0,-0.66 0,-1c6.93,-0.99 6.93,-0.99 14,-2c0,-0.66 0,-1.32 0,-2z"/>
   <path id="svg_50" fill="#4C4F55" d="m137,193c1.23422,2.46845 1.06596,4.06281 1,6.8125c-0.04105,3.54573 0.07982,6.73682 1,10.1875c0.99,0.33 1.98,0.66 3,1c-1.98,0 -3.96,0 -6,0c0,-1.32 0,-2.64 0,-4c-0.66,0 -1.32,0 -2,0c0,-3.3 0,-6.6 0,-10c0.66,0 1.32,0 2,0c0.33,-1.32 0.66,-2.64 1,-4z"/>
   <path id="svg_51" fill="#989797" d="m142,191c0.99,0 1.98,0 3,0c-0.33,0.99 -0.66,1.98 -1,3c-0.66,0 -1.32,0 -2,0c0.33,1.98 0.66,3.96 1,6c3.3,0 6.6,0 10,0c0,0.33 0,0.66 0,1c-2.14471,0.36093 -4.29081,0.71358 -6.4375,1.0625c-1.19496,0.19723 -2.38992,0.39445 -3.62109,0.59766c-0.97067,0.11214 -1.94133,0.22429 -2.94141,0.33984c-1,-1 -1,-1 -1.25,-3.75c0.27881,-3.62449 1.00102,-5.41796 3.25,-8.25z"/>
   <path id="svg_52" fill="#760D10" d="m165,163c1.32,0.33 2.64,0.66 4,1c0,0.66 0,1.32 0,2c0.43313,-0.495 0.86625,-0.99 1.3125,-1.5c1.6875,-1.5 1.6875,-1.5 4.6875,-1.5c-0.33,2.64 -0.66,5.28 -1,8c-2.375,-0.25 -2.375,-0.25 -5,-1c-1.3125,-2.0625 -1.3125,-2.0625 -2,-4c-0.66,0 -1.32,0 -2,0c0,-0.99 0,-1.98 0,-3z"/>
   <path id="svg_53" fill="#EBC2AB" d="m139,64c0,0.66 0,1.32 0,2c-8.25,0 -16.5,0 -25,0c0,-0.66 0,-1.32 0,-2c8.48799,-0.80543 16.53439,-1.12299 25,0z"/>
   <path id="svg_54" fill="#850E12" d="m190,144c2,1 2,1 3,2c0.04093,2.33297 0.04242,4.66705 0,7c-0.99,0 -1.98,0 -3,0c-0.33,0.66 -0.66,1.32 -1,2c-1.65,-0.33 -3.3,-0.66 -5,-1c0,-0.99 0,-1.98 0,-3c0.99,0 1.98,0 3,0c0.30938,-0.96938 0.61875,-1.93875 0.9375,-2.9375c1.0625,-3.0625 1.0625,-3.0625 2.0625,-4.0625z"/>
   <path id="svg_55" fill="#979697" d="m210,89c2,2 2,2 2,6c0.66,0 1.32,0 2,0c0.33,3.63 0.66,7.26 1,11c0.66,0 1.32,0 2,0c0,2.31 0,4.62 0,7c-0.33,-0.66 -0.66,-1.32 -1,-2c-0.66,0 -1.32,0 -2,0c-0.12117,-0.55688 -0.24234,-1.11375 -0.36719,-1.6875c-0.85117,-3.8761 -1.73339,-7.72825 -2.75781,-11.5625c-0.72757,-3.11818 -1.07298,-5.58238 -0.875,-8.75z"/>
   <path id="svg_56" fill="#8B8B8E" d="m91,209c15.74487,0.77904 15.74487,0.77904 23,3c0,0.33 0,0.66 0,1c-12.5882,0.34541 -12.5882,0.34541 -17.6875,-1.125c-1.09312,-0.28875 -2.18625,-0.5775 -3.3125,-0.875c-0.66,0.66 -1.32,1.32 -2,2c0,-1.32 0,-2.64 0,-4z"/>
   <path id="svg_57" fill="#ACAFB6" d="m136,51c0,0.33 0,0.66 0,1c-1.22977,0.04898 -2.45953,0.09797 -3.72656,0.14844c-1.63284,0.07507 -3.26565,0.15062 -4.89844,0.22656c-0.80824,0.03094 -1.61648,0.06188 -2.44922,0.09375c-4.6813,0.22836 -8.48362,0.93001 -12.92578,2.53125c-2.71061,0.22664 -5.27148,0.09409 -8,0c0.33,-0.66 0.66,-1.32 1,-2c9.88423,-3.04419 20.78584,-2.19232 31,-2z"/>
   <path id="svg_58" fill="#9D9C9C" d="m147,189c4.43644,0.19331 8.06717,0.52407 12.0625,2.5625c2.83575,3.56756 2.31026,5.96435 1.9375,10.4375c-0.99,0.495 -0.99,0.495 -2,1c-0.33,-2.97 -0.66,-5.94 -1,-9c-0.66,0 -1.32,0 -2,0c0,-0.66 0,-1.32 0,-2c-3.3,-0.33 -6.6,-0.66 -10,-1c0.33,-0.66 0.66,-1.32 1,-2z"/>
   <path id="svg_59" fill="#806E6F" d="m147.64844,185.66797c2.79794,0.01798 5.56202,0.11891 8.35156,0.33203c0,1.32 0,2.64 0,4c-0.59168,-0.0116 -1.18336,-0.0232 -1.79297,-0.03515c-4.20935,-0.04807 -8.09926,-0.02492 -12.20703,1.03515c1.11957,-3.44482 1.95717,-4.86926 5.64844,-5.33203z"/>
   <path id="svg_60" fill="#7C7B7F" d="m195,183c0.66,0 1.32,0 2,0c0,3 0,3 -2.3125,5.5c-0.88688,0.825 -1.77375,1.65 -2.6875,2.5c-0.51563,0.55687 -1.03125,1.11375 -1.5625,1.6875c-1.72053,1.57092 -3.25493,2.49404 -5.4375,3.3125c-0.99,-0.33 -1.98,-0.66 -3,-1c1.32,-0.66 2.64,-1.32 4,-2c0,-0.66 0,-1.32 0,-2c0.99,0 1.98,0 3,0c0.33,-0.99 0.66,-1.98 1,-3c0.66,0 1.32,0 2,0c0.33,-0.99 0.66,-1.98 1,-3c0.66,0 1.32,0 2,0c0,-0.66 0,-1.32 0,-2z"/>
   <path id="svg_61" fill="#7D716E" d="m114,141c0.99,0 1.98,0 3,0c0,0.66 0,1.32 0,2c6.93,0.495 6.93,0.495 14,1c0,0.66 0,1.32 0,2c-5.28,0 -10.56,0 -16,0c-0.33,-1.65 -0.66,-3.3 -1,-5z"/>
   <path id="svg_62" fill="#CDA789" d="m130,109c0.33,0 0.66,0 1,0c0,2.97 0,5.94 0,9c1.65,0.33 3.3,0.66 5,1c-0.33,0.66 -0.66,1.32 -1,2c-1.32,0 -2.64,0 -4,0c0,-0.66 0,-1.32 0,-2c-2.97,-0.33 -5.94,-0.66 -9,-1c0,-2.64 0,-5.28 0,-8c0.33,0 0.66,0 1,0c0,1.98 0,3.96 0,6c2.31,0 4.62,0 7,0c0,-2.31 0,-4.62 0,-7z"/>
   <path id="svg_63" fill="#5C090C" d="m183,172c0.97533,2.63339 1.01957,3.92348 0.3125,6.6875c-1.3125,2.3125 -1.3125,2.3125 -3.4375,3.125c-0.61875,0.06188 -1.2375,0.12375 -1.875,0.1875c-3,-3.625 -3,-3.625 -3,-7c0.66,0 1.32,0 2,0c0,0.66 0,1.32 0,2c1.32,0 2.64,0 4,0c0.14437,-0.63938 0.28875,-1.27875 0.4375,-1.9375c0.5625,-2.0625 0.5625,-2.0625 1.5625,-3.0625z"/>
   <path id="svg_64" fill="#585A5D" d="m164,196c0.66,0.33 1.32,0.66 2,1c0,1.98 0,3.96 0,6c1.32,-0.33 2.64,-0.66 4,-1c0,0.66 0,1.32 0,2c-0.99,0.33 -1.98,0.66 -3,1c-1.70855,3.00007 -1.70855,3.00007 -3,6c-0.66,0 -1.32,0 -2,0c0,-1.98 0,-3.96 0,-6c0.66,0 1.32,0 2,0c0,-2.97 0,-5.94 0,-9z"/>
   <path id="svg_65" fill="#444041" d="m156,112c0.66,0.99 1.32,1.98 2,3c0.99,0.66 1.98,1.32 3,2c-0.99,0.33 -1.98,0.66 -3,1c0.33,1.32 0.66,2.64 1,4c3.3,0 6.6,0 10,0c0,0.66 0,1.32 0,2c-3.96,0 -7.92,0 -12,0c-1.77507,-4.43768 -2.311,-6.43871 -2,-11c0.33,-0.33 0.66,-0.66 1,-1z"/>
   <path id="svg_66" fill="#989697" d="m170,202c2.31,0 4.62,0 7,0c-3.37187,3.96691 -8.12187,6.37396 -13,8c0.75,-2.4375 0.75,-2.4375 2,-5c2.125,-0.8125 2.125,-0.8125 4,-1c0,-0.66 0,-1.32 0,-2z"/>
   <path id="svg_67" fill="#697077" d="m208,168c-0.6019,3.04294 -1.53651,5.07218 -3.375,7.5625c-0.42023,0.57879 -0.84047,1.15758 -1.27344,1.75391c-1.36566,1.70116 -2.71264,3.24187 -4.35156,4.68359c-0.66,0 -1.32,0 -2,0c0.9657,-2.15426 1.74631,-3.76746 3.5,-5.375c2.07434,-2.2472 2.56189,-4.74813 3.5,-7.625c2,-1 2,-1 4,-1z"/>
   <path id="svg_68" fill="#E1521F" d="m74,146c0,0.99 0,1.98 0,3c0.99,0 1.98,0 3,0c0.33,0.99 0.66,1.98 1,3c-2.49065,0.68708 -4.37886,1 -7,1c-0.99,0.495 -0.99,0.495 -2,1c0.25561,-2.34312 0.59271,-4.67843 1,-7c2,-1 2,-1 4,-1zm-7,8c0.99,0.495 0.99,0.495 2,1c-0.99,0.495 -0.99,0.495 -2,1c0,-0.66 0,-1.32 0,-2z"/>
   <path id="svg_69" fill="#ABA9B1" d="m103,55c0,2 0,2 -2.3125,4.4375c-0.88687,0.84563 -1.77375,1.69125 -2.6875,2.5625c-0.55687,0.59812 -1.11375,1.19625 -1.6875,1.8125c-1.3125,1.1875 -1.3125,1.1875 -3.3125,1.1875c0,-0.66 0,-1.32 0,-2c-1.32,-0.33 -2.64,-0.66 -4,-1c0.86238,-0.15275 0.86238,-0.15275 1.74219,-0.30859c2.64985,-0.81146 4.2298,-2.0225 6.38281,-3.75391c3.66324,-2.9375 3.66324,-2.9375 5.875,-2.9375z"/>
   <path id="svg_70" fill="#BABABB" d="m106,192c0,0.66 0,1.32 0,2c-1.09313,0.12375 -2.18625,0.2475 -3.3125,0.375c-3.76132,0.37965 -3.76132,0.37965 -6.6875,2.625c-0.33,0.99 -0.66,1.98 -1,3c0.99,0 1.98,0 3,0c0,0.66 0,1.32 0,2c-1.32,0 -2.64,0 -4,0c-0.36628,-5.49419 -0.36628,-5.49419 1.3125,-7.8125c3.45421,-2.43074 6.61272,-2.27805 10.6875,-2.1875z"/>
   <path id="svg_71" fill="#8D8A8B" d="m117,141c5.28,0 10.56,0 16,0c0,0.66 0,1.32 0,2c-2.59517,1.29758 -4.54183,1.13269 -7.4375,1.125c-0.96809,0.00258 -1.93617,0.00516 -2.93359,0.00781c-2.62891,-0.13281 -2.62891,-0.13281 -5.62891,-1.13281c0,-0.66 0,-1.32 0,-2z"/>
   <path id="svg_72" fill="#E33B41" d="m176,88c0.66,0 1.32,0 2,0c0,0.66 0,1.32 0,2c0.99,0.33 1.98,0.66 3,1c0,0.99 0,1.98 0,3c0.66,0 1.32,0 2,0c0,0.66 0,1.32 0,2c-1.32,0.33 -2.64,0.66 -4,1c-0.33,-0.99 -0.66,-1.98 -1,-3c-0.99,-0.33 -1.98,-0.66 -3,-1c0.33,-1.65 0.66,-3.3 1,-5z"/>
   <path id="svg_73" fill="#1E3B54" d="m202,77c0.33,0.99 0.66,1.98 1,3c0.66,0 1.32,0 2,0c2.27679,8.03571 2.27679,8.03571 1,12c-0.33,-1.32 -0.66,-2.64 -1,-4c-0.66,0 -1.32,0 -2,0c-0.33,-3.63 -0.66,-7.26 -1,-11z"/>
   <path id="svg_74" fill="#676466" d="m114,193c0.66,0.33 1.32,0.66 2,1c0,4.29 0,8.58 0,13c-1.32,0 -2.64,0 -4,0c0,-0.66 0,-1.32 0,-2c0.66,0 1.32,0 2,0c0,-3.96 0,-7.92 0,-12z"/>
   <path id="svg_75" fill="#C6C5C5" d="m131,124c0.66,0 1.32,0 2,0c0.92018,7.82152 0.92018,7.82152 -1.33594,10.71094c-1.66406,1.35156 -1.66406,1.35156 -4.66406,3.28906c-0.66,-0.33 -1.32,-0.66 -2,-1c0.80438,-0.66 1.60875,-1.32 2.4375,-2c3.31399,-3.87979 3.30827,-6.00015 3.5625,-11z"/>
   <path id="svg_76" fill="#B0AFAF" d="m156,110c2.31,0.33 4.62,0.66 7,1c0,1.65 0,3.3 0,5c-1.65,0 -3.3,0 -5,0c-0.66,-1.98 -1.32,-3.96 -2,-6z"/>
   <path id="svg_77" fill="#CCCBCB" d="m106,194c0,0.66 0,1.32 0,2c-1.14469,0.15469 -1.14469,0.15469 -2.3125,0.3125c-2.93012,0.74957 -3.6654,1.57349 -5.6875,3.6875c-0.99,0 -1.98,0 -3,0c0.3125,-1.875 0.3125,-1.875 1,-4c3.64418,-2.42945 5.71241,-2.1618 10,-2z"/>
   <path id="svg_78" fill="#949293" d="m106,189c0,0.66 0,1.32 0,2c-0.59168,0.04898 -1.18336,0.09797 -1.79297,0.14844c-4.39807,0.41613 -8.17632,0.90122 -12.20703,2.85156c0,-0.99 0,-1.98 0,-3c4.6485,-2.39922 8.91086,-2.19957 14,-2z"/>
   <path id="svg_79" fill="#571926" d="m167,184c1.98,0 3.96,0 6,0c0.66,1.32 1.32,2.64 2,4c-0.99,-0.33 -1.98,-0.66 -3,-1c0,-0.66 0,-1.32 0,-2c-0.66,0 -1.32,0 -2,0c0,0.66 0,1.32 0,2c-7.42857,2.42857 -7.42857,2.42857 -11,1c2.906,-1.25665 4.79605,-2 8,-2c0,-0.66 0,-1.32 0,-2z"/>
   <path id="svg_80" fill="#A9A7A8" d="m114,128c0.33,2.31 0.66,4.62 1,7c0.66,0 1.32,0 2,0c0,0.99 0,1.98 0,3c-3,0 -3,0 -4.6875,-1.125c-1.84771,-2.63959 -1.52196,-4.73304 -1.3125,-7.875c2,-1 2,-1 3,-1z"/>
   <path id="svg_81" fill="#DBDAD9" d="m147,196c1.98,0 3.96,0 6,0c0.33,1.32 0.66,2.64 1,4c-2.97,0 -5.94,0 -9,0c0.66,-1.32 1.32,-2.64 2,-4z"/>
   <path id="svg_82" fill="#939395" d="m109,191c0.66,0 1.32,0 2,0c1.99785,4.12057 2.17836,7.45194 2,12c-1.32,0.33 -2.64,0.66 -4,1c0,-0.66 0,-1.32 0,-2c0.66,0 1.32,0 2,0c-0.66,-3.63 -1.32,-7.26 -2,-11z"/>
   <path id="svg_83" fill="#5C595A" d="m95,108c3.63,0 7.26,0 11,0c0,0.66 0,1.32 0,2c-2.31,-0.33 -4.62,-0.66 -7,-1c0.33,2.31 0.66,4.62 1,7c-0.66,-0.33 -1.32,-0.66 -2,-1c0,-0.99 0,-1.98 0,-3c-1.32,-0.66 -2.64,-1.32 -4,-2c0.33,-0.66 0.66,-1.32 1,-2z"/>
   <path id="svg_84" fill="#9E3415" d="m64,149c2.64,0 5.28,0 8,0c-0.99,0.495 -0.99,0.495 -2,1c-0.65213,2.02463 -0.65213,2.02463 -1,4c-1.9375,0.5625 -1.9375,0.5625 -4,1c-1,-1 -1,-1 -1.0625,-3.5625c0.02062,-0.80437 0.04125,-1.60875 0.0625,-2.4375z"/>
   <path id="svg_85" fill="#FBD7C4" d="m146,88c0.33,0.66 0.66,1.32 1,2c-1.26572,1.15148 -2.53778,2.29599 -3.8125,3.4375c-0.7077,0.63809 -1.41539,1.27617 -2.14453,1.93359c-2.04297,1.62891 -2.04297,1.62891 -5.04297,2.62891c0.33,-1.32 0.66,-2.64 1,-4c0.66,0 1.32,0 2,0c0,-0.66 0,-1.32 0,-2c2.31,-1.32 4.62,-2.64 7,-4z"/>
   <path id="svg_86" fill="#9D3515" d="m75,151c2.64,0.33 5.28,0.66 8,1c-1.25,2.5 -1.25,2.5 -3,5c-1.32,0 -2.64,0 -4,0c-0.33,-1.98 -0.66,-3.96 -1,-6z"/>
   <path id="svg_87" fill="#898788" d="m139,126c1.8345,3.09571 2.64504,5.40621 2,9c-2.5,1.8125 -2.5,1.8125 -5,3c0.74251,-4.08378 1.82923,-8.01939 3,-12z"/>
   <path id="svg_88" fill="#183753" d="m117,195c1.32,0.33 2.64,0.66 4,1c-0.33,0.33 -0.66,0.66 -1,1c-0.28102,2.31953 -0.44783,4.63886 -0.62109,6.96875c-0.12504,0.67031 -0.25008,1.34062 -0.37891,2.03125c-0.99,0.495 -0.99,0.495 -2,1c0,-3.96 0,-7.92 0,-12z"/>
   <path id="svg_89" fill="#5A585A" d="m86,197c0.99,0.495 0.99,0.495 2,1c0.41406,2.50391 0.41406,2.50391 0.625,5.5625c0.07477,1.01191 0.14953,2.02383 0.22656,3.06641c0.07348,1.17369 0.07348,1.17369 0.14844,2.37109c-0.99,-0.66 -1.98,-1.32 -3,-2c-0.29297,-2.38281 -0.29297,-2.38281 -0.1875,-5.125c0.02707,-0.91008 0.05414,-1.82016 0.08203,-2.75781c0.03481,-0.69867 0.06961,-1.39735 0.10547,-2.11719z"/>
   <path id="svg_90" fill="#8C8B8D" d="m153,208c7.46592,-0.36718 7.46592,-0.36718 10,1.375c1,1.625 1,1.625 1,3.625c-1.32,-0.33 -2.64,-0.66 -4,-1c0,-0.66 0,-1.32 0,-2c-2.31,0 -4.62,0 -7,0c0,-0.66 0,-1.32 0,-2z"/>
   <path id="svg_91" fill="#71777D" d="m156,202c1.65,0 3.3,0 5,0c0.33,2.64 0.66,5.28 1,8c-0.33,-0.66 -0.66,-1.32 -1,-2c-1.65,0 -3.3,0 -5,0c0.99,-0.33 1.98,-0.66 3,-1c-0.7425,-0.68063 -0.7425,-0.68063 -1.5,-1.375c-1.5,-1.625 -1.5,-1.625 -1.5,-3.625z"/>
   <path id="svg_92" fill="#7D0E11" d="m177,151c0.33,0.99 0.66,1.98 1,3c-1.75,1.125 -1.75,1.125 -4,2c-2.25,-0.875 -2.25,-0.875 -4,-2c0,-0.66 0,-1.32 0,-2c3.465,-0.495 3.465,-0.495 7,-1z"/>
   <path id="svg_93" fill="#4B4E54" d="m116,196c0.33,0 0.66,0 1,0c0,4.62 0,9.24 0,14c-0.99,0.33 -1.98,0.66 -3,1c0,-0.66 0,-1.32 0,-2c-0.66,0 -1.32,0 -2,0c0.33,-0.66 0.66,-1.32 1,-2c0.66,0 1.32,0 2,0c0.33,-3.63 0.66,-7.26 1,-11z"/>
   <path id="svg_94" fill="#999FA5" d="m141,197c0.99,0.495 0.99,0.495 2,1c0,0.66 0,1.32 0,2c3.3,0 6.6,0 10,0c0,0.33 0,0.66 0,1c-3.96,0.66 -7.92,1.32 -12,2c0,-1.98 0,-3.96 0,-6z"/>
   <path id="svg_95" fill="#8D8D90" d="m91,195c0.33,0 0.66,0 1,0c0,2.64 0,5.28 0,8c0.99,0.33 1.98,0.66 3,1c-1.65,0.33 -3.3,0.66 -5,1c-0.02689,-1.47907 -0.04635,-2.95827 -0.0625,-4.4375c-0.0116,-0.82371 -0.0232,-1.64742 -0.03516,-2.49609c0.09766,-2.06641 0.09766,-2.06641 1.09766,-3.06641z"/>
   <path id="svg_96" fill="#982415" d="m78,163c0.99,0.33 1.98,0.66 3,1c0,0.66 0,1.32 0,2c1.32,0.33 2.64,0.66 4,1c-0.33,0.66 -0.66,1.32 -1,2c-1.65,-0.33 -3.3,-0.66 -5,-1c-0.33,-1.65 -0.66,-3.3 -1,-5z"/>
   <path id="svg_97" fill="#8897AF" d="m53,178c0.66,0 1.32,0 2,0c1.50781,1.96875 1.50781,1.96875 3.125,4.5c0.53883,0.83531 1.07766,1.67063 1.63281,2.53125c0.40992,0.64969 0.81985,1.29937 1.24219,1.96875c-0.99,0 -1.98,0 -3,0c0,-0.66 0,-1.32 0,-2c-0.66,0 -1.32,0 -2,0c0,-0.99 0,-1.98 0,-3c-0.66,0 -1.32,0 -2,0c-0.33,-1.32 -0.66,-2.64 -1,-4z"/>
   <path id="svg_98" fill="#CDCDCD" d="m127,121c-3.12432,2.52349 -6.3806,4.27256 -10,6c0,-3 0,-3 1.625,-4.6875c2.95699,-1.63412 5.0468,-1.53942 8.375,-1.3125z"/>
   <path id="svg_99" fill="#931214" d="m70,175c0.66,0 1.32,0 2,0c0,0.66 0,1.32 0,2c1.98,-0.33 3.96,-0.66 6,-1c-0.33,0.99 -0.66,1.98 -1,3c-2.5625,1.1875 -2.5625,1.1875 -5,2c-0.66,-1.98 -1.32,-3.96 -2,-6z"/>
   <path id="svg_100" fill="#610A0C" d="m179,163c2.31,0 4.62,0 7,0c0,0.99 0,1.98 0,3c-3,1 -3,1 -5.1875,0.0625c-0.59813,-0.35062 -1.19625,-0.70125 -1.8125,-1.0625c0,-0.66 0,-1.32 0,-2z"/>
   <path id="svg_101" fill="#992315" d="m67,163c2.31,0 4.62,0 7,0c-0.33,0.99 -0.66,1.98 -1,3c-0.99,0 -1.98,0 -3,0c-0.33,0.66 -0.66,1.32 -1,2c0,-0.66 0,-1.32 0,-2c-0.66,0 -1.32,0 -2,0c0,-0.99 0,-1.98 0,-3z"/>
   <path id="svg_102" fill="#A3A1A2" d="m197,185c0.66,0.33 1.32,0.66 2,1c-2.64,2.64 -5.28,5.28 -8,8c-0.66,-0.33 -1.32,-0.66 -2,-1c0.95422,-1.14926 1.91352,-2.29431 2.875,-3.4375c0.53367,-0.63809 1.06734,-1.27617 1.61719,-1.93359c1.50781,-1.62891 1.50781,-1.62891 3.50781,-2.62891z"/>
   <path id="svg_103" fill="#680A0E" d="m189,150c0,1.65 0,3.3 0,5c-1.65,-0.33 -3.3,-0.66 -5,-1c0,-0.99 0,-1.98 0,-3c3,-1 3,-1 5,-1z"/>
   <path id="svg_104" fill="#9F9D9D" d="m91,209c2.97,0.33 5.94,0.66 9,1c0,0.66 0,1.32 0,2c-1.11375,-0.20625 -2.2275,-0.4125 -3.375,-0.625c-1.19625,-0.12375 -2.3925,-0.2475 -3.625,-0.375c-0.66,0.66 -1.32,1.32 -2,2c0,-1.32 0,-2.64 0,-4z"/>
   <path id="svg_105" fill="#7E7C7D" d="m84,205c0.66,0 1.32,0 2,0c0.66,0.99 1.32,1.98 2,3c0.66,-0.33 1.32,-0.66 2,-1c0,1.98 0,3.96 0,6c-0.99,-0.33 -1.98,-0.66 -3,-1c-1.6875,-3.5625 -1.6875,-3.5625 -3,-7z"/>
   <path id="svg_106" fill="#A0A0A4" d="m64,192c2.475,0.99 2.475,0.99 5,2c0,0.66 0,1.32 0,2c1.32,0.33 2.64,0.66 4,1c0,0.66 0,1.32 0,2c-0.99,0 -1.98,0 -3,0c0,-0.66 0,-1.32 0,-2c-0.61875,-0.30938 -1.2375,-0.61875 -1.875,-0.9375c-1.375,-0.6875 -2.75,-1.375 -4.125,-2.0625c0,-0.66 0,-1.32 0,-2z"/>
   <path id="svg_107" fill="#94A1BA" d="m47,167c2.61724,2.36798 4.32862,4.896 6,8c0,0.66 0,1.32 0,2c-0.66,0 -1.32,0 -2,0c-2.83941,-3.67452 -4,-5.26887 -4,-10z"/>
   <path id="svg_108" fill="#830F12" d="m158,154c2.31,0.33 4.62,0.66 7,1c-0.33,1.32 -0.66,2.64 -1,4c-2.4375,-0.8125 -2.4375,-0.8125 -5,-2c-0.33,-0.99 -0.66,-1.98 -1,-3z"/>
   <path id="svg_109" fill="#923113" d="m88,154c2.31,0 4.62,0 7,0c-0.33,0.99 -0.66,1.98 -1,3c-2.5625,1.1875 -2.5625,1.1875 -5,2c-0.33,-1.65 -0.66,-3.3 -1,-5z"/>
   <path id="svg_110" fill="#81635D" d="m139,135c0.99,0.33 1.98,0.66 3,1c-1.32,2.64 -2.64,5.28 -4,8c-0.66,-1.32 -1.32,-2.64 -2,-4c1.375,-2.75 1.375,-2.75 3,-5z"/>
   <path id="svg_111" fill="#B8171D" d="m172,150c0.33,0.66 0.66,1.32 1,2c-2.64,0 -5.28,0 -8,0c0,-0.66 0,-1.32 0,-2c2.69766,-1.34883 4.15164,-0.80338 7,0z"/>
   <path id="svg_112" fill="#9C9A9A" d="m189,195c-2.3125,2.0625 -2.3125,2.0625 -5,4c-0.99,-0.33 -1.98,-0.66 -3,-1c0,-0.66 0,-1.32 0,-2c4.625,-2.125 4.625,-2.125 8,-1z"/>
   <path id="svg_113" fill="#921116" d="m165,163c1.32,0.33 2.64,0.66 4,1c0.33,1.98 0.66,3.96 1,6c-0.99,-0.66 -1.98,-1.32 -3,-2c0,-0.66 0,-1.32 0,-2c-0.66,0 -1.32,0 -2,0c0,-0.99 0,-1.98 0,-3z"/>
   <path id="svg_114" fill="#DF5720" d="m88,149c-1,3 -1,3 -3,4c-2.125,-0.4375 -2.125,-0.4375 -4,-1c0,-0.66 0,-1.32 0,-2c3,-1 3,-1 7,-1z"/>
   <path id="svg_115" fill="#E4E1DF" d="m99,60c0.99,0.33 1.98,0.66 3,1c-1.6234,1.70884 -3.29319,3.37447 -5,5c-0.66,0 -1.32,0 -2,0c-0.33,-0.99 -0.66,-1.98 -1,-3c2.3125,-1.5625 2.3125,-1.5625 5,-3z"/>
  </g>
 </g>
</svg>